<svg width="36" height="35" viewBox="0 0 36 35" fill="none" xmlns="http://www.w3.org/2000/svg">
<path d="M14.4471 12.732L15.1982 15.4488C15.9055 18.0082 16.2584 19.2886 17.2982 19.8705C18.338 20.4538 19.6578 20.1097 22.2973 19.4243L25.0973 18.6951C27.7369 18.0097 29.0567 17.667 29.6575 16.6593C30.2584 15.6501 29.9055 14.3697 29.1967 11.8103L28.4471 9.09488C27.7398 6.53404 27.3855 5.25363 26.3471 4.67175C25.3059 4.08842 23.9861 4.43258 21.3465 5.11946L18.5465 5.84571C15.9069 6.53113 14.5871 6.87529 13.9878 7.88446C13.3869 8.89217 13.7398 10.1726 14.4471 12.732Z" fill="#595959"/>
<path d="M3.8209 7.65099C3.85932 7.51248 3.92467 7.38291 4.0132 7.26967C4.10173 7.15644 4.21172 7.06177 4.33686 6.99107C4.46201 6.92037 4.59987 6.87503 4.74255 6.85764C4.88523 6.84025 5.02994 6.85116 5.1684 6.88974L7.65194 7.57807C8.30995 7.75722 8.91041 8.10359 9.39492 8.58351C9.87944 9.06342 10.2315 9.66055 10.4169 10.3168L13.5538 21.6714L13.7842 22.4691C14.7143 22.8119 15.498 23.4643 16.0038 24.3168L16.4559 24.1768L29.3913 20.8154C29.5304 20.7792 29.6752 20.7707 29.8175 20.7905C29.9598 20.8102 30.0968 20.8578 30.2207 20.9306C30.3446 21.0033 30.453 21.0997 30.5396 21.2143C30.6263 21.3289 30.6895 21.4595 30.7257 21.5985C30.7619 21.7375 30.7703 21.8823 30.7506 22.0246C30.7308 22.1669 30.6832 22.304 30.6105 22.4279C30.5378 22.5518 30.4414 22.6601 30.3268 22.7468C30.2122 22.8334 30.0816 22.8967 29.9426 22.9329L17.0553 26.2812L16.574 26.4299C16.5653 28.282 15.2863 29.9766 13.3511 30.4783C11.0324 31.082 8.64798 29.7462 8.02673 27.4974C7.40548 25.2487 8.78215 22.9343 11.1009 22.332C11.2166 22.3029 11.3318 22.2776 11.4465 22.2562L8.30819 10.8987C8.22332 10.6071 8.06463 10.3423 7.84748 10.13C7.63032 9.91774 7.36205 9.76508 7.06861 9.68682L4.58361 8.99703C4.44513 8.95875 4.31555 8.89357 4.20227 8.8052C4.08899 8.71684 3.99423 8.60702 3.9234 8.48202C3.85257 8.35702 3.80706 8.21929 3.78948 8.0767C3.77189 7.93411 3.78257 7.78945 3.8209 7.65099Z" fill="#595959"/>
</svg>
