<svg width="60" height="60" viewBox="0 0 60 60" fill="none" xmlns="http://www.w3.org/2000/svg">
<path d="M53.2195 14.4C53.1316 14.2945 53.0216 14.2096 52.8973 14.1512C52.773 14.0929 52.6373 14.0626 52.5 14.0625H13.9078L12.3422 5.45625C12.3027 5.24065 12.189 5.04569 12.0207 4.90524C11.8524 4.7648 11.6403 4.68776 11.4211 4.6875H5.625C5.37636 4.6875 5.1379 4.78627 4.96209 4.96209C4.78627 5.1379 4.6875 5.37636 4.6875 5.625C4.6875 5.87364 4.78627 6.1121 4.96209 6.28791C5.1379 6.46373 5.37636 6.5625 5.625 6.5625H10.6383L12.2063 15.1875L16.7555 40.2141C16.9652 41.3578 17.5925 42.3827 18.5156 43.0898C17.5486 43.7131 16.7959 44.618 16.3591 45.6823C15.9223 46.7467 15.8224 47.9194 16.0729 49.0424C16.3233 50.1653 16.9121 51.1844 17.7598 51.9623C18.6074 52.7402 19.6733 53.2394 20.8135 53.3927C21.9538 53.546 23.1136 53.346 24.1366 52.8196C25.1597 52.2932 25.9967 51.4657 26.5348 50.4488C27.0729 49.4319 27.2862 48.2744 27.1461 47.1325C27.0059 45.9906 26.5189 44.9191 25.7508 44.0625H39.8742C39.0155 45.0226 38.5123 46.2484 38.4487 47.5349C38.3851 48.8215 38.7651 50.0909 39.525 51.131C40.2849 52.171 41.3788 52.9188 42.6238 53.2493C43.8688 53.5797 45.1895 53.4728 46.3652 52.9465C47.5409 52.4202 48.5003 51.5063 49.0832 50.3576C49.666 49.2088 49.8369 47.8949 49.5673 46.6353C49.2977 45.3757 48.604 44.2467 47.602 43.4372C46.6001 42.6276 45.3506 42.1865 44.0625 42.1875H21.368C20.7097 42.1872 20.0724 41.956 19.567 41.5341C19.0617 41.1123 18.7203 40.5265 18.6023 39.8789L17.6648 34.6875H45.9609C47.0587 34.6877 48.1217 34.3025 48.9647 33.5992C49.8076 32.8959 50.3769 31.9191 50.5734 30.8391L53.4234 15.1688C53.4479 15.0335 53.4423 14.8945 53.407 14.7617C53.3718 14.6288 53.3078 14.5054 53.2195 14.4ZM25.3125 47.8125C25.3125 48.5542 25.0926 49.2792 24.6805 49.8959C24.2685 50.5126 23.6828 50.9932 22.9976 51.2771C22.3123 51.5609 21.5583 51.6351 20.8309 51.4904C20.1035 51.3458 19.4353 50.9886 18.9109 50.4642C18.3864 49.9397 18.0292 49.2715 17.8846 48.5441C17.7399 47.8167 17.8141 47.0627 18.098 46.3774C18.3818 45.6922 18.8624 45.1065 19.4791 44.6945C20.0958 44.2824 20.8208 44.0625 21.5625 44.0625C22.5571 44.0625 23.5109 44.4576 24.2141 45.1609C24.9174 45.8641 25.3125 46.8179 25.3125 47.8125ZM47.8125 47.8125C47.8125 48.5542 47.5926 49.2792 47.1805 49.8959C46.7685 50.5126 46.1828 50.9932 45.4976 51.2771C44.8123 51.5609 44.0583 51.6351 43.3309 51.4904C42.6035 51.3458 41.9353 50.9886 41.4109 50.4642C40.8864 49.9397 40.5292 49.2715 40.3846 48.5441C40.2399 47.8167 40.3141 47.0627 40.598 46.3774C40.8818 45.6922 41.3624 45.1065 41.9791 44.6945C42.5958 44.2824 43.3208 44.0625 44.0625 44.0625C45.0571 44.0625 46.0109 44.4576 46.7141 45.1609C47.4174 45.8641 47.8125 46.8179 47.8125 47.8125ZM48.7289 30.5039C48.6109 31.1519 48.2692 31.738 47.7633 32.1599C47.2575 32.5818 46.6196 32.8127 45.9609 32.8125H17.3156L14.2477 15.9375H51.3773L48.7289 30.5039Z" fill="#222" stroke="#222" stroke-width="0.72"/>
<path d="M46.5835 18H19.4166C18.675 18 18.111 18.6658 18.2329 19.3973L19.8329 28.9973C19.9293 29.5759 20.4299 30 21.0166 30H44.9834C45.5701 30 46.0707 29.5759 46.1671 28.9973L47.7671 19.3973C47.889 18.6658 47.325 18 46.5835 18Z" fill="#222"/>
</svg>
