<svg width="100" height="100" viewBox="0 0 100 100" fill="none" xmlns="http://www.w3.org/2000/svg">
<path d="M16.6849 62.5092L19.4506 58.3607C20.3932 56.9467 22.1265 56.2827 23.7727 56.705L48.9906 63.1739C49.6525 63.3437 50.3468 63.3411 51.0075 63.1664L75.4918 56.6893C77.0669 56.2727 78.7372 56.8529 79.7148 58.1563L82.7108 62.151C84.3289 64.3085 83.3578 67.4173 80.7993 68.2702C79.1858 68.808 78.0976 70.3179 78.0976 72.0186V80.2787C78.0976 82.0283 76.9606 83.5748 75.2907 84.0967L51.175 91.6328C50.4094 91.8721 49.5895 91.8756 48.8219 91.643L23.8644 84.0801C22.1778 83.569 21.0244 82.0143 21.0244 80.252V71.8325C21.0244 70.2314 20.0312 68.7983 18.5321 68.2361C16.2158 67.3675 15.3127 64.5676 16.6849 62.5092Z" fill="#A8CF45"/>
<path d="M17 54.303L50 43.6364M17 54.303L50 64M17 54.303L9.61922 64.6411C8.82404 65.7549 9.35723 67.3204 10.6669 67.7173L17 69.6364M17 54.303L9.61922 43.965C8.82404 42.8512 9.35723 41.2857 10.6669 40.8888L38.7526 32.378C39.5108 32.1482 40.3331 32.3877 40.8495 32.9885L50 43.6364M50 43.6364L82 54.303M50 43.6364L57.1857 33.1845C57.6722 32.4767 58.5564 32.1587 59.3823 32.3942L89.1213 40.8759C90.4921 41.2669 91.0255 42.9255 90.1396 44.0422L82 54.303M82 54.303L50 64M82 54.303L90.1396 64.5639C91.0255 65.6806 90.4921 67.3392 89.1213 67.7301L82 69.7611M50 64L40.8453 75.5405C40.3351 76.1836 39.4839 76.4497 38.6984 76.2116L17 69.6364M50 64L57.1995 75.3447C57.6742 76.0928 58.5846 76.4393 59.4367 76.1963L82 69.7611M17 69.6364V84.8062C17 85.6936 17.5847 86.4749 18.4361 86.725L49.4273 95.8317C49.801 95.9415 50.1985 95.9398 50.5712 95.8269L80.58 86.7333C81.4233 86.4778 82 85.7004 82 84.8193V69.7611" stroke="#9E9E9E" stroke-width="2.5"/>
<path d="M48.4657 54C31.4429 39 36.5513 24.4 53.9697 27.4857C75.0422 31.2188 79.0085 11.0276 68.1221 10" stroke="#9E9E9E" stroke-width="2.5" stroke-linecap="round" stroke-linejoin="round" stroke-dasharray="6 6"/>
<path d="M61.4572 17.1503C59.2281 20.2808 53.3344 13.9557 50.986 11.198C50.3922 10.5007 50.3922 9.49803 50.9861 8.80071C53.3345 6.04334 59.2281 -0.280682 61.4572 2.84974C62.668 4.55008 61.5842 7.33524 60.8082 8.87958C60.457 9.57843 60.4569 10.4203 60.808 11.1192C61.5841 12.6639 62.6681 15.4499 61.4572 17.1503Z" stroke="#9E9E9E" stroke-width="2.5"/>
<rect x="48" y="8" width="16" height="4" rx="2" fill="#A8CF45"/>
</svg>
