<svg width="24" height="24" viewBox="0 0 24 24" fill="none" xmlns="http://www.w3.org/2000/svg">
<path d="M16.1279 2.3125C16.2527 2.33553 16.3698 2.39222 16.4658 2.47754C16.5922 2.58989 16.6729 2.74456 16.6943 2.91211L16.7012 3.01855V4.30078H18.001C18.6896 4.30074 19.3525 4.56376 19.8535 5.03613C20.2919 5.44952 20.5773 5.99625 20.6689 6.58691L20.6963 6.84277L20.7012 7.00977V19.001C20.7012 19.6896 20.4382 20.3525 19.9658 20.8535C19.4934 21.3546 18.8467 21.6559 18.1592 21.6963L17.9922 21.7012H6.00098C5.31236 21.7012 4.64949 21.4382 4.14844 20.9658C3.64737 20.4934 3.34607 19.8467 3.30566 19.1592L3.30078 18.9922V7.00098C3.30074 6.31236 3.56376 5.64949 4.03613 5.14844C4.50843 4.64754 5.15457 4.34526 5.8418 4.30469L6.00977 4.30078H7.30078V3.00098C7.30106 2.82268 7.36979 2.65114 7.49219 2.52148C7.61465 2.39184 7.78192 2.31417 7.95996 2.30371C8.13796 2.29326 8.31342 2.35047 8.4502 2.46484C8.5851 2.57776 8.67172 2.73783 8.69434 2.91211L8.70117 3.01855V4.30078H15.3008V3.00098C15.3008 2.81533 15.3746 2.63713 15.5059 2.50586C15.6371 2.37458 15.8153 2.30078 16.001 2.30078L16.1279 2.3125ZM4.70117 8.70117V18.626C4.70117 19.0314 4.81178 19.4107 5.00488 19.707C5.19705 20.0019 5.48378 20.2313 5.83594 20.2881L5.84863 20.29L5.86133 20.291L5.97754 20.2998L5.98926 20.3008H18.001C18.3677 20.3008 18.6813 20.1109 18.9014 19.8398C19.121 19.5692 19.2601 19.2054 19.293 18.8105L19.2939 18.7988L19.3008 18.6387V8.70117H4.70117Z" fill="#595959"/>
<path d="M12.0008 12C12.2458 12 12.4822 12.09 12.6652 12.2527C12.8483 12.4155 12.9652 12.6397 12.9938 12.883L13.0008 13V16C13.0006 16.2549 12.903 16.5 12.728 16.6854C12.553 16.8707 12.3139 16.9822 12.0595 16.9972C11.805 17.0121 11.5545 16.9293 11.359 16.7657C11.1636 16.6021 11.0379 16.3701 11.0078 16.117L11.0008 16V14C10.746 13.9997 10.5008 13.9021 10.3155 13.7272C10.1301 13.5522 10.0186 13.313 10.0037 13.0586C9.98874 12.8042 10.0715 12.5536 10.2351 12.3582C10.3987 12.1627 10.6308 12.0371 10.8838 12.007L11.0008 12H12.0008Z" fill="#595959"/>
</svg>
