<svg width="20" height="20" viewBox="0 0 20 20" fill="none" xmlns="http://www.w3.org/2000/svg">
<path d="M10.0001 5.83321C11.1052 5.83321 12.165 6.27221 12.9464 7.05364C13.7279 7.83506 14.1669 8.8949 14.1669 10M9.16687 2.55001C9.44332 2.51629 9.72157 2.4996 10.0001 2.50001C11.9892 2.50001 13.8968 3.29018 15.3034 4.69671C16.7099 6.10323 17.5001 8.01088 17.5001 10C17.5001 10.2787 17.4834 10.5564 17.4501 10.8332" stroke="#5E5E5E" stroke-width="1.5" stroke-linecap="round" stroke-linejoin="round"/>
<path d="M12.5 17.4993C11.2082 17.1913 9.98284 16.6519 8.88323 15.9073L10.4 13.7329C10.6494 13.3926 11.0185 13.1596 11.433 13.0807C11.8474 13.0019 12.2763 13.0831 12.6332 13.3081C12.9084 13.4829 13.1916 13.6413 13.4668 13.7997C13.6738 13.9009 13.8576 14.044 14.0065 14.2198C14.1554 14.3956 14.2663 14.6004 14.3321 14.8212C14.3978 15.0421 14.4171 15.2741 14.3887 15.5028C14.3602 15.7314 14.2847 15.9517 14.1668 16.1497L13.65 16.9417C13.5575 17.1575 13.3903 17.3327 13.1791 17.4351C12.9679 17.5376 12.7268 17.5602 12.5 17.4993ZM3.05843 6.3913L3.89163 5.8741C4.08489 5.74867 4.30206 5.66468 4.52943 5.62741C4.75679 5.59015 4.98941 5.60043 5.21261 5.6576C5.4358 5.71477 5.64471 5.81759 5.82616 5.95957C6.00762 6.10155 6.15766 6.27961 6.26683 6.4825C6.42523 6.7825 6.58323 7.0661 6.75843 7.3161C6.98334 7.67304 7.06453 8.10199 6.98562 8.51643C6.90671 8.93088 6.67357 9.29998 6.33323 9.5493L4.11683 11.0909C3.3662 10.0007 2.81849 8.78402 2.50003 7.4993C2.45019 7.27851 2.47864 7.04727 2.5805 6.84515C2.68237 6.64302 2.85131 6.48259 3.05843 6.3913Z" stroke="#5E5E5E" stroke-width="1.5" stroke-linecap="round" stroke-linejoin="round"/>
<path d="M4.11682 11.0918C4.72947 12.052 5.45091 12.9383 6.26682 13.733C7.06168 14.5489 7.94808 15.2704 8.90842 15.883" stroke="#5E5E5E" stroke-width="1.5" stroke-linecap="round" stroke-linejoin="round"/>
</svg>
