<svg width="19" height="19" viewBox="0 0 19 19" fill="none" xmlns="http://www.w3.org/2000/svg">
<path d="M17.4168 7.12565V13.459C17.4168 13.8789 17.25 14.2816 16.9531 14.5786C16.6561 14.8755 16.2534 15.0423 15.8335 15.0423H3.16683C2.7469 15.0423 2.34418 14.8755 2.04724 14.5786C1.75031 14.2816 1.5835 13.8789 1.5835 13.459V5.54232C1.5835 5.12239 1.75031 4.71966 2.04724 4.42273C2.34418 4.1258 2.7469 3.95898 3.16683 3.95898H15.8335C16.2534 3.95898 16.6561 4.1258 16.9531 4.42273C17.25 4.71966 17.4168 5.12239 17.4168 5.54232V7.12565ZM17.4168 7.12565H4.75016" stroke="#2A2A2A" stroke-width="1.5" stroke-linecap="round" stroke-linejoin="round"/>
<path d="M13.0627 10.5954C13.2336 10.4426 13.445 10.3424 13.6715 10.3071C13.898 10.2718 14.1299 10.3028 14.3392 10.3964C14.5484 10.49 14.7261 10.6422 14.8508 10.8345C14.9755 11.0269 15.0419 11.2512 15.0419 11.4805C15.0419 11.7097 14.9755 11.9341 14.8508 12.1264C14.7261 12.3188 14.5484 12.4709 14.3392 12.5645C14.1299 12.6581 13.898 12.6891 13.6715 12.6538C13.445 12.6185 13.2336 12.5184 13.0627 12.3656M13.0627 10.5954C12.8918 10.4426 12.6804 10.3424 12.4539 10.3071C12.2274 10.2718 11.9955 10.3028 11.7862 10.3964C11.577 10.49 11.3992 10.6422 11.2745 10.8345C11.1498 11.0269 11.0835 11.2512 11.0835 11.4805C11.0835 11.7097 11.1498 11.9341 11.2745 12.1264C11.3992 12.3188 11.577 12.4709 11.7862 12.5645C11.9955 12.6581 12.2274 12.6891 12.4539 12.6538C12.6804 12.6185 12.8918 12.5184 13.0627 12.3656" stroke="#2A2A2A" stroke-width="1.5" stroke-linecap="round" stroke-linejoin="round"/>
</svg>
