<svg width="18" height="19" viewBox="0 0 18 19" fill="none" xmlns="http://www.w3.org/2000/svg">
<mask id="path-1-outside-1_4099_1998" maskUnits="userSpaceOnUse" x="-0.078125" y="-0.453125" width="18" height="19" fill="black">
<rect fill="white" x="-0.078125" y="-0.453125" width="18" height="19"/>
<path d="M15.875 1.92188H13.6406V1.0625C13.6406 0.925748 13.5863 0.794596 13.4896 0.697898C13.3929 0.6012 13.2618 0.546875 13.125 0.546875C12.9882 0.546875 12.8571 0.6012 12.7604 0.697898C12.6637 0.794596 12.6094 0.925748 12.6094 1.0625V1.92188H5.39062V1.0625C5.39062 0.925748 5.3363 0.794596 5.2396 0.697898C5.1429 0.6012 5.01175 0.546875 4.875 0.546875C4.73825 0.546875 4.6071 0.6012 4.5104 0.697898C4.4137 0.794596 4.35938 0.925748 4.35938 1.0625V1.92188H2.125C1.80591 1.92188 1.49989 2.04863 1.27426 2.27426C1.04863 2.49989 0.921875 2.80591 0.921875 3.125V16.875C0.921875 17.1941 1.04863 17.5001 1.27426 17.7257C1.49989 17.9514 1.80591 18.0781 2.125 18.0781H15.875C16.1941 18.0781 16.5001 17.9514 16.7257 17.7257C16.9514 17.5001 17.0781 17.1941 17.0781 16.875V3.125C17.0781 2.80591 16.9514 2.49989 16.7257 2.27426C16.5001 2.04863 16.1941 1.92188 15.875 1.92188ZM2.125 2.95312H4.35938V3.8125C4.35938 3.94925 4.4137 4.0804 4.5104 4.1771C4.6071 4.2738 4.73825 4.32812 4.875 4.32812C5.01175 4.32812 5.1429 4.2738 5.2396 4.1771C5.3363 4.0804 5.39062 3.94925 5.39062 3.8125V2.95312H12.6094V3.8125C12.6094 3.94925 12.6637 4.0804 12.7604 4.1771C12.8571 4.2738 12.9882 4.32812 13.125 4.32812C13.2618 4.32812 13.3929 4.2738 13.4896 4.1771C13.5863 4.0804 13.6406 3.94925 13.6406 3.8125V2.95312H15.875C15.9206 2.95312 15.9643 2.97123 15.9965 3.00347C16.0288 3.0357 16.0469 3.07942 16.0469 3.125V6.04688H1.95312V3.125C1.95312 3.07942 1.97123 3.0357 2.00347 3.00347C2.0357 2.97123 2.07942 2.95312 2.125 2.95312ZM15.875 17.0469H2.125C2.07942 17.0469 2.0357 17.0288 2.00347 16.9965C1.97123 16.9643 1.95312 16.9206 1.95312 16.875V7.07812H16.0469V16.875C16.0469 16.9206 16.0288 16.9643 15.9965 16.9965C15.9643 17.0288 15.9206 17.0469 15.875 17.0469ZM7.45312 9.3125V14.8125C7.45312 14.9493 7.3988 15.0804 7.3021 15.1771C7.2054 15.2738 7.07425 15.3281 6.9375 15.3281C6.80075 15.3281 6.6696 15.2738 6.5729 15.1771C6.4762 15.0804 6.42188 14.9493 6.42188 14.8125V10.147L5.79281 10.4615C5.73221 10.4917 5.66624 10.5097 5.59868 10.5145C5.53111 10.5192 5.46328 10.5106 5.39904 10.4892C5.3348 10.4677 5.27542 10.4338 5.22428 10.3894C5.17315 10.345 5.13126 10.2909 5.10102 10.2303C5.07077 10.1697 5.05276 10.1037 5.04801 10.0362C5.04326 9.96861 5.05186 9.90078 5.07333 9.83654C5.09479 9.7723 5.1287 9.71292 5.17312 9.66178C5.21753 9.61065 5.27158 9.56876 5.33219 9.53852L6.70719 8.85102C6.78581 8.81176 6.87316 8.79326 6.96095 8.79725C7.04874 8.80125 7.13405 8.82762 7.20878 8.87385C7.28351 8.92009 7.34519 8.98465 7.38795 9.06142C7.43072 9.1382 7.45315 9.22462 7.45312 9.3125ZM12.5724 11.8262L10.7188 14.2969H12.4375C12.5743 14.2969 12.7054 14.3512 12.8021 14.4479C12.8988 14.5446 12.9531 14.6757 12.9531 14.8125C12.9531 14.9493 12.8988 15.0804 12.8021 15.1771C12.7054 15.2738 12.5743 15.3281 12.4375 15.3281H9.6875C9.59174 15.3281 9.49788 15.3015 9.41642 15.2511C9.33496 15.2008 9.26914 15.1287 9.22631 15.0431C9.18349 14.9574 9.16536 14.8616 9.17396 14.7662C9.18256 14.6708 9.21755 14.5797 9.275 14.5031L11.75 11.2031C11.8213 11.1095 11.8725 11.0022 11.9007 10.8879C11.9288 10.7736 11.9331 10.6548 11.9134 10.5388C11.8937 10.4228 11.8504 10.312 11.7861 10.2134C11.7219 10.1149 11.638 10.0305 11.5399 9.96565C11.4417 9.90078 11.3312 9.85677 11.2153 9.83634C11.0994 9.81591 10.9806 9.81951 10.8661 9.8469C10.7517 9.87429 10.6441 9.9249 10.55 9.99558C10.4559 10.0663 10.3773 10.1555 10.3191 10.2578C10.2884 10.3219 10.2447 10.379 10.1909 10.4254C10.137 10.4718 10.0741 10.5066 10.0062 10.5276C9.93821 10.5485 9.86667 10.5552 9.79602 10.5472C9.72537 10.5391 9.65714 10.5166 9.59562 10.4809C9.53411 10.4452 9.48064 10.3973 9.43856 10.3399C9.39649 10.2826 9.36672 10.2172 9.35114 10.1478C9.33555 10.0785 9.33449 10.0066 9.34801 9.9368C9.36152 9.86699 9.38933 9.80073 9.42969 9.74219C9.55927 9.51972 9.73293 9.32607 9.94001 9.17309C10.1471 9.02012 10.3832 8.91105 10.634 8.85258C10.8847 8.7941 11.1447 8.78745 11.3981 8.83303C11.6515 8.87861 11.8929 8.97547 12.1075 9.11766C12.3222 9.25984 12.5055 9.44437 12.6463 9.65992C12.7871 9.87547 12.8823 10.1175 12.9263 10.3712C12.9702 10.6249 12.9619 10.8848 12.9017 11.1352C12.8416 11.3855 12.731 11.621 12.5767 11.827L12.5724 11.8262Z"/>
</mask>
<path d="M15.875 1.92188H13.6406V1.0625C13.6406 0.925748 13.5863 0.794596 13.4896 0.697898C13.3929 0.6012 13.2618 0.546875 13.125 0.546875C12.9882 0.546875 12.8571 0.6012 12.7604 0.697898C12.6637 0.794596 12.6094 0.925748 12.6094 1.0625V1.92188H5.39062V1.0625C5.39062 0.925748 5.3363 0.794596 5.2396 0.697898C5.1429 0.6012 5.01175 0.546875 4.875 0.546875C4.73825 0.546875 4.6071 0.6012 4.5104 0.697898C4.4137 0.794596 4.35938 0.925748 4.35938 1.0625V1.92188H2.125C1.80591 1.92188 1.49989 2.04863 1.27426 2.27426C1.04863 2.49989 0.921875 2.80591 0.921875 3.125V16.875C0.921875 17.1941 1.04863 17.5001 1.27426 17.7257C1.49989 17.9514 1.80591 18.0781 2.125 18.0781H15.875C16.1941 18.0781 16.5001 17.9514 16.7257 17.7257C16.9514 17.5001 17.0781 17.1941 17.0781 16.875V3.125C17.0781 2.80591 16.9514 2.49989 16.7257 2.27426C16.5001 2.04863 16.1941 1.92188 15.875 1.92188ZM2.125 2.95312H4.35938V3.8125C4.35938 3.94925 4.4137 4.0804 4.5104 4.1771C4.6071 4.2738 4.73825 4.32812 4.875 4.32812C5.01175 4.32812 5.1429 4.2738 5.2396 4.1771C5.3363 4.0804 5.39062 3.94925 5.39062 3.8125V2.95312H12.6094V3.8125C12.6094 3.94925 12.6637 4.0804 12.7604 4.1771C12.8571 4.2738 12.9882 4.32812 13.125 4.32812C13.2618 4.32812 13.3929 4.2738 13.4896 4.1771C13.5863 4.0804 13.6406 3.94925 13.6406 3.8125V2.95312H15.875C15.9206 2.95312 15.9643 2.97123 15.9965 3.00347C16.0288 3.0357 16.0469 3.07942 16.0469 3.125V6.04688H1.95312V3.125C1.95312 3.07942 1.97123 3.0357 2.00347 3.00347C2.0357 2.97123 2.07942 2.95312 2.125 2.95312ZM15.875 17.0469H2.125C2.07942 17.0469 2.0357 17.0288 2.00347 16.9965C1.97123 16.9643 1.95312 16.9206 1.95312 16.875V7.07812H16.0469V16.875C16.0469 16.9206 16.0288 16.9643 15.9965 16.9965C15.9643 17.0288 15.9206 17.0469 15.875 17.0469ZM7.45312 9.3125V14.8125C7.45312 14.9493 7.3988 15.0804 7.3021 15.1771C7.2054 15.2738 7.07425 15.3281 6.9375 15.3281C6.80075 15.3281 6.6696 15.2738 6.5729 15.1771C6.4762 15.0804 6.42188 14.9493 6.42188 14.8125V10.147L5.79281 10.4615C5.73221 10.4917 5.66624 10.5097 5.59868 10.5145C5.53111 10.5192 5.46328 10.5106 5.39904 10.4892C5.3348 10.4677 5.27542 10.4338 5.22428 10.3894C5.17315 10.345 5.13126 10.2909 5.10102 10.2303C5.07077 10.1697 5.05276 10.1037 5.04801 10.0362C5.04326 9.96861 5.05186 9.90078 5.07333 9.83654C5.09479 9.7723 5.1287 9.71292 5.17312 9.66178C5.21753 9.61065 5.27158 9.56876 5.33219 9.53852L6.70719 8.85102C6.78581 8.81176 6.87316 8.79326 6.96095 8.79725C7.04874 8.80125 7.13405 8.82762 7.20878 8.87385C7.28351 8.92009 7.34519 8.98465 7.38795 9.06142C7.43072 9.1382 7.45315 9.22462 7.45312 9.3125ZM12.5724 11.8262L10.7188 14.2969H12.4375C12.5743 14.2969 12.7054 14.3512 12.8021 14.4479C12.8988 14.5446 12.9531 14.6757 12.9531 14.8125C12.9531 14.9493 12.8988 15.0804 12.8021 15.1771C12.7054 15.2738 12.5743 15.3281 12.4375 15.3281H9.6875C9.59174 15.3281 9.49788 15.3015 9.41642 15.2511C9.33496 15.2008 9.26914 15.1287 9.22631 15.0431C9.18349 14.9574 9.16536 14.8616 9.17396 14.7662C9.18256 14.6708 9.21755 14.5797 9.275 14.5031L11.75 11.2031C11.8213 11.1095 11.8725 11.0022 11.9007 10.8879C11.9288 10.7736 11.9331 10.6548 11.9134 10.5388C11.8937 10.4228 11.8504 10.312 11.7861 10.2134C11.7219 10.1149 11.638 10.0305 11.5399 9.96565C11.4417 9.90078 11.3312 9.85677 11.2153 9.83634C11.0994 9.81591 10.9806 9.81951 10.8661 9.8469C10.7517 9.87429 10.6441 9.9249 10.55 9.99558C10.4559 10.0663 10.3773 10.1555 10.3191 10.2578C10.2884 10.3219 10.2447 10.379 10.1909 10.4254C10.137 10.4718 10.0741 10.5066 10.0062 10.5276C9.93821 10.5485 9.86667 10.5552 9.79602 10.5472C9.72537 10.5391 9.65714 10.5166 9.59562 10.4809C9.53411 10.4452 9.48064 10.3973 9.43856 10.3399C9.39649 10.2826 9.36672 10.2172 9.35114 10.1478C9.33555 10.0785 9.33449 10.0066 9.34801 9.9368C9.36152 9.86699 9.38933 9.80073 9.42969 9.74219C9.55927 9.51972 9.73293 9.32607 9.94001 9.17309C10.1471 9.02012 10.3832 8.91105 10.634 8.85258C10.8847 8.7941 11.1447 8.78745 11.3981 8.83303C11.6515 8.87861 11.8929 8.97547 12.1075 9.11766C12.3222 9.25984 12.5055 9.44437 12.6463 9.65992C12.7871 9.87547 12.8823 10.1175 12.9263 10.3712C12.9702 10.6249 12.9619 10.8848 12.9017 11.1352C12.8416 11.3855 12.731 11.621 12.5767 11.827L12.5724 11.8262Z" fill="#2A2A2A"/>
<path d="M15.875 1.92188H13.6406V1.0625C13.6406 0.925748 13.5863 0.794596 13.4896 0.697898C13.3929 0.6012 13.2618 0.546875 13.125 0.546875C12.9882 0.546875 12.8571 0.6012 12.7604 0.697898C12.6637 0.794596 12.6094 0.925748 12.6094 1.0625V1.92188H5.39062V1.0625C5.39062 0.925748 5.3363 0.794596 5.2396 0.697898C5.1429 0.6012 5.01175 0.546875 4.875 0.546875C4.73825 0.546875 4.6071 0.6012 4.5104 0.697898C4.4137 0.794596 4.35938 0.925748 4.35938 1.0625V1.92188H2.125C1.80591 1.92188 1.49989 2.04863 1.27426 2.27426C1.04863 2.49989 0.921875 2.80591 0.921875 3.125V16.875C0.921875 17.1941 1.04863 17.5001 1.27426 17.7257C1.49989 17.9514 1.80591 18.0781 2.125 18.0781H15.875C16.1941 18.0781 16.5001 17.9514 16.7257 17.7257C16.9514 17.5001 17.0781 17.1941 17.0781 16.875V3.125C17.0781 2.80591 16.9514 2.49989 16.7257 2.27426C16.5001 2.04863 16.1941 1.92188 15.875 1.92188ZM2.125 2.95312H4.35938V3.8125C4.35938 3.94925 4.4137 4.0804 4.5104 4.1771C4.6071 4.2738 4.73825 4.32812 4.875 4.32812C5.01175 4.32812 5.1429 4.2738 5.2396 4.1771C5.3363 4.0804 5.39062 3.94925 5.39062 3.8125V2.95312H12.6094V3.8125C12.6094 3.94925 12.6637 4.0804 12.7604 4.1771C12.8571 4.2738 12.9882 4.32812 13.125 4.32812C13.2618 4.32812 13.3929 4.2738 13.4896 4.1771C13.5863 4.0804 13.6406 3.94925 13.6406 3.8125V2.95312H15.875C15.9206 2.95312 15.9643 2.97123 15.9965 3.00347C16.0288 3.0357 16.0469 3.07942 16.0469 3.125V6.04688H1.95312V3.125C1.95312 3.07942 1.97123 3.0357 2.00347 3.00347C2.0357 2.97123 2.07942 2.95312 2.125 2.95312ZM15.875 17.0469H2.125C2.07942 17.0469 2.0357 17.0288 2.00347 16.9965C1.97123 16.9643 1.95312 16.9206 1.95312 16.875V7.07812H16.0469V16.875C16.0469 16.9206 16.0288 16.9643 15.9965 16.9965C15.9643 17.0288 15.9206 17.0469 15.875 17.0469ZM7.45312 9.3125V14.8125C7.45312 14.9493 7.3988 15.0804 7.3021 15.1771C7.2054 15.2738 7.07425 15.3281 6.9375 15.3281C6.80075 15.3281 6.6696 15.2738 6.5729 15.1771C6.4762 15.0804 6.42188 14.9493 6.42188 14.8125V10.147L5.79281 10.4615C5.73221 10.4917 5.66624 10.5097 5.59868 10.5145C5.53111 10.5192 5.46328 10.5106 5.39904 10.4892C5.3348 10.4677 5.27542 10.4338 5.22428 10.3894C5.17315 10.345 5.13126 10.2909 5.10102 10.2303C5.07077 10.1697 5.05276 10.1037 5.04801 10.0362C5.04326 9.96861 5.05186 9.90078 5.07333 9.83654C5.09479 9.7723 5.1287 9.71292 5.17312 9.66178C5.21753 9.61065 5.27158 9.56876 5.33219 9.53852L6.70719 8.85102C6.78581 8.81176 6.87316 8.79326 6.96095 8.79725C7.04874 8.80125 7.13405 8.82762 7.20878 8.87385C7.28351 8.92009 7.34519 8.98465 7.38795 9.06142C7.43072 9.1382 7.45315 9.22462 7.45312 9.3125ZM12.5724 11.8262L10.7188 14.2969H12.4375C12.5743 14.2969 12.7054 14.3512 12.8021 14.4479C12.8988 14.5446 12.9531 14.6757 12.9531 14.8125C12.9531 14.9493 12.8988 15.0804 12.8021 15.1771C12.7054 15.2738 12.5743 15.3281 12.4375 15.3281H9.6875C9.59174 15.3281 9.49788 15.3015 9.41642 15.2511C9.33496 15.2008 9.26914 15.1287 9.22631 15.0431C9.18349 14.9574 9.16536 14.8616 9.17396 14.7662C9.18256 14.6708 9.21755 14.5797 9.275 14.5031L11.75 11.2031C11.8213 11.1095 11.8725 11.0022 11.9007 10.8879C11.9288 10.7736 11.9331 10.6548 11.9134 10.5388C11.8937 10.4228 11.8504 10.312 11.7861 10.2134C11.7219 10.1149 11.638 10.0305 11.5399 9.96565C11.4417 9.90078 11.3312 9.85677 11.2153 9.83634C11.0994 9.81591 10.9806 9.81951 10.8661 9.8469C10.7517 9.87429 10.6441 9.9249 10.55 9.99558C10.4559 10.0663 10.3773 10.1555 10.3191 10.2578C10.2884 10.3219 10.2447 10.379 10.1909 10.4254C10.137 10.4718 10.0741 10.5066 10.0062 10.5276C9.93821 10.5485 9.86667 10.5552 9.79602 10.5472C9.72537 10.5391 9.65714 10.5166 9.59562 10.4809C9.53411 10.4452 9.48064 10.3973 9.43856 10.3399C9.39649 10.2826 9.36672 10.2172 9.35114 10.1478C9.33555 10.0785 9.33449 10.0066 9.34801 9.9368C9.36152 9.86699 9.38933 9.80073 9.42969 9.74219C9.55927 9.51972 9.73293 9.32607 9.94001 9.17309C10.1471 9.02012 10.3832 8.91105 10.634 8.85258C10.8847 8.7941 11.1447 8.78745 11.3981 8.83303C11.6515 8.87861 11.8929 8.97547 12.1075 9.11766C12.3222 9.25984 12.5055 9.44437 12.6463 9.65992C12.7871 9.87547 12.8823 10.1175 12.9263 10.3712C12.9702 10.6249 12.9619 10.8848 12.9017 11.1352C12.8416 11.3855 12.731 11.621 12.5767 11.827L12.5724 11.8262Z" stroke="#2A2A2A" stroke-width="0.4" mask="url(#path-1-outside-1_4099_1998)"/>
</svg>
