<svg width="34" height="34" viewBox="0 0 34 34" fill="none" xmlns="http://www.w3.org/2000/svg">
<rect width="34" height="34" rx="17" fill="white"/>
<path d="M14.564 13.7305L15.079 15.5935C15.564 17.3485 15.806 18.2265 16.519 18.6255C17.232 19.0255 18.137 18.7895 19.947 18.3195L21.867 17.8195C23.677 17.3495 24.582 17.1145 24.994 16.4235C25.406 15.7315 25.164 14.8535 24.678 13.0985L24.164 11.2365C23.679 9.48049 23.436 8.60249 22.724 8.20349C22.01 7.80349 21.105 8.03949 19.295 8.51049L17.375 9.00849C15.565 9.47849 14.66 9.71449 14.249 10.4065C13.837 11.0975 14.079 11.9755 14.564 13.7305Z" fill="#7E9F2C"/>
<path d="M7.27694 10.2468C7.30329 10.1518 7.3481 10.063 7.40881 9.98531C7.46952 9.90766 7.54493 9.84274 7.63075 9.79426C7.71656 9.74578 7.81109 9.71469 7.90893 9.70277C8.00677 9.69085 8.106 9.69833 8.20094 9.72478L9.90394 10.1968C10.3552 10.3196 10.7669 10.5571 11.0991 10.8862C11.4314 11.2153 11.6728 11.6248 11.7999 12.0748L13.9509 19.8608L14.1089 20.4078C14.7467 20.6428 15.2841 21.0902 15.6309 21.6748L15.9409 21.5788L24.8109 19.2738C24.9063 19.249 25.0056 19.2432 25.1032 19.2567C25.2007 19.2703 25.2947 19.3029 25.3797 19.3528C25.4646 19.4026 25.5389 19.4688 25.5984 19.5473C25.6578 19.6259 25.7011 19.7154 25.7259 19.8108C25.7508 19.9061 25.7566 20.0054 25.743 20.103C25.7295 20.2006 25.6968 20.2945 25.6469 20.3795C25.5971 20.4645 25.531 20.5388 25.4524 20.5982C25.3738 20.6576 25.2843 20.701 25.1889 20.7258L16.3519 23.0218L16.0219 23.1238C16.0159 24.3938 15.1389 25.5558 13.8119 25.8998C12.2219 26.3138 10.5869 25.3978 10.1609 23.8558C9.73494 22.3138 10.6789 20.7268 12.2689 20.3138C12.3483 20.2938 12.4273 20.2764 12.5059 20.2618L10.3539 12.4738C10.2957 12.2738 10.1869 12.0923 10.038 11.9467C9.88912 11.8011 9.70516 11.6964 9.50394 11.6428L7.79994 11.1698C7.70499 11.1435 7.61613 11.0988 7.53845 11.0382C7.46078 10.9776 7.3958 10.9023 7.34723 10.8166C7.29866 10.7309 7.26746 10.6365 7.2554 10.5387C7.24334 10.4409 7.25066 10.3417 7.27694 10.2468Z" fill="#7E9F2C"/>
</svg>
