<svg width="19" height="15" viewBox="0 0 19 15" fill="none" xmlns="http://www.w3.org/2000/svg">
<path d="M17.7069 6.31818H16.725L14.6125 1.52665C14.5432 1.36953 14.4302 1.23609 14.2871 1.14258C14.144 1.04907 13.977 0.999536 13.8064 1H5.19138C5.02083 0.999536 4.85383 1.04907 4.71072 1.14258C4.56761 1.23609 4.45456 1.36953 4.38534 1.52665L2.275 6.31818H1.2931C1.21537 6.31818 1.14082 6.34931 1.08585 6.40472C1.03088 6.46013 1 6.53528 1 6.61364C1 6.692 1.03088 6.76715 1.08585 6.82256C1.14082 6.87796 1.21537 6.90909 1.2931 6.90909H2.17241V13.1136C2.17241 13.3487 2.26506 13.5742 2.42996 13.7404C2.59486 13.9066 2.81852 14 3.05172 14H4.81034C5.04355 14 5.26721 13.9066 5.43211 13.7404C5.59701 13.5742 5.68966 13.3487 5.68966 13.1136V11.6364H13.3103V13.1136C13.3103 13.3487 13.403 13.5742 13.5679 13.7404C13.7328 13.9066 13.9564 14 14.1897 14H15.9483C16.1815 14 16.4051 13.9066 16.57 13.7404C16.7349 13.5742 16.8276 13.3487 16.8276 13.1136V6.90909H17.7069C17.7846 6.90909 17.8592 6.87796 17.9142 6.82256C17.9691 6.76715 18 6.692 18 6.61364C18 6.53528 17.9691 6.46013 17.9142 6.40472C17.8592 6.34931 17.7846 6.31818 17.7069 6.31818ZM4.92319 1.76671C4.94619 1.71436 4.98378 1.66988 5.03139 1.63868C5.07901 1.60747 5.13459 1.59087 5.19138 1.59091H13.8086C13.8654 1.59087 13.921 1.60747 13.9686 1.63868C14.0162 1.66988 14.0538 1.71436 14.0768 1.76671L16.0831 6.31818H2.9169L4.92319 1.76671ZM5.10345 13.1136C5.10345 13.192 5.07257 13.2671 5.0176 13.3226C4.96263 13.378 4.88808 13.4091 4.81034 13.4091H3.05172C2.97399 13.4091 2.89944 13.378 2.84447 13.3226C2.7895 13.2671 2.75862 13.192 2.75862 13.1136V11.6364H5.10345V13.1136ZM15.9483 13.4091H14.1897C14.1119 13.4091 14.0374 13.378 13.9824 13.3226C13.9274 13.2671 13.8966 13.192 13.8966 13.1136V11.6364H16.2414V13.1136C16.2414 13.192 16.2105 13.2671 16.1555 13.3226C16.1006 13.378 16.026 13.4091 15.9483 13.4091ZM16.2414 11.0455H2.75862V6.90909H16.2414V11.0455ZM4.51724 8.97727C4.51724 8.89891 4.54812 8.82376 4.60309 8.76836C4.65806 8.71295 4.73261 8.68182 4.81034 8.68182H5.98276C6.06049 8.68182 6.13505 8.71295 6.19001 8.76836C6.24498 8.82376 6.27586 8.89891 6.27586 8.97727C6.27586 9.05563 6.24498 9.13078 6.19001 9.18619C6.13505 9.2416 6.06049 9.27273 5.98276 9.27273H4.81034C4.73261 9.27273 4.65806 9.2416 4.60309 9.18619C4.54812 9.13078 4.51724 9.05563 4.51724 8.97727ZM12.7241 8.97727C12.7241 8.89891 12.755 8.82376 12.81 8.76836C12.865 8.71295 12.9395 8.68182 13.0172 8.68182H14.1897C14.2674 8.68182 14.3419 8.71295 14.3969 8.76836C14.4519 8.82376 14.4828 8.89891 14.4828 8.97727C14.4828 9.05563 14.4519 9.13078 14.3969 9.18619C14.3419 9.2416 14.2674 9.27273 14.1897 9.27273H13.0172C12.9395 9.27273 12.865 9.2416 12.81 9.18619C12.755 9.13078 12.7241 9.05563 12.7241 8.97727Z" fill="#9E9E9E" stroke="#9E9E9E" stroke-width="0.8"/>
</svg>
