<svg width="15" height="17" viewBox="0 0 15 17" fill="none" xmlns="http://www.w3.org/2000/svg">
<path d="M10.4126 7.58578C10.3745 7.60563 10.332 7.61601 10.2888 7.61601C10.2456 7.61601 10.2031 7.60563 10.165 7.58578L9.76456 7.34491C9.72906 7.32354 9.69915 7.29443 9.67718 7.25989V7.25281C9.65148 7.21472 9.63642 7.17076 9.63349 7.12528L9.61893 6.66478C9.61964 6.62211 9.63134 6.58029 9.65297 6.54315C9.6746 6.50602 9.70545 6.47476 9.74272 6.45224L14.6214 3.68924L7.7767 0.0619028C7.69047 0.0211658 7.59586 0 7.5 0C7.40414 0 7.30953 0.0211658 7.2233 0.0619028L0.378641 3.68215L8.04612 8.02503C8.08338 8.04755 8.11424 8.07881 8.13587 8.11594C8.15749 8.15308 8.1692 8.19489 8.1699 8.23757V14.5712C8.1692 14.6139 8.15749 14.6557 8.13587 14.6929C8.11424 14.73 8.08338 14.7613 8.04612 14.7838L7.63107 14.9963C7.59336 15.0177 7.55088 15.0299 7.50728 15.0317H7.5C7.45455 15.0332 7.40946 15.0234 7.36893 15.0034L6.95388 14.7767C6.91527 14.755 6.88296 14.7241 6.86003 14.6869C6.83709 14.6498 6.82429 14.6075 6.82282 14.5641V8.92478C6.82008 8.90181 6.81213 8.87973 6.79953 8.86012C6.78694 8.84052 6.77002 8.82388 6.75 8.81142L0 4.99281V12.4883C0 12.6513 0.123786 12.8638 0.269417 12.9489L7.23058 16.9375C7.31411 16.9786 7.4064 17 7.5 17C7.5936 17 7.68589 16.9786 7.76942 16.9375L14.7306 12.9489C14.8762 12.8568 15 12.6513 15 12.4883V4.99281L10.4126 7.58578Z" fill="url(#paint0_linear_4589_18618)"/>
<defs>
<linearGradient id="paint0_linear_4589_18618" x1="0.0728162" y1="14.4295" x2="7.49468" y2="8.03008" gradientUnits="userSpaceOnUse">
<stop stop-color="#BE0737"/>
<stop offset="0.04" stop-color="#C00736"/>
<stop offset="0.63" stop-color="#D8062C"/>
<stop offset="1" stop-color="#E10528"/>
</linearGradient>
</defs>
</svg>
