<svg width="16" height="17" viewBox="0 0 16 17" fill="none" xmlns="http://www.w3.org/2000/svg">
<mask id="path-1-outside-1_2357_28858" maskUnits="userSpaceOnUse" x="-0.34375" y="-0.59375" width="16" height="18" fill="black">
<rect fill="white" x="-0.34375" y="-0.59375" width="16" height="18"/>
<path d="M14.25 1.65625H12.2188V0.875C12.2188 0.75068 12.1694 0.631451 12.0815 0.543544C11.9935 0.455636 11.8743 0.40625 11.75 0.40625C11.6257 0.40625 11.5065 0.455636 11.4185 0.543544C11.3306 0.631451 11.2812 0.75068 11.2812 0.875V1.65625H4.71875V0.875C4.71875 0.75068 4.66936 0.631451 4.58146 0.543544C4.49355 0.455636 4.37432 0.40625 4.25 0.40625C4.12568 0.40625 4.00645 0.455636 3.91854 0.543544C3.83064 0.631451 3.78125 0.75068 3.78125 0.875V1.65625H1.75C1.45992 1.65625 1.18172 1.77148 0.976602 1.9766C0.771484 2.18172 0.65625 2.45992 0.65625 2.75V15.25C0.65625 15.5401 0.771484 15.8183 0.976602 16.0234C1.18172 16.2285 1.45992 16.3438 1.75 16.3438H14.25C14.5401 16.3438 14.8183 16.2285 15.0234 16.0234C15.2285 15.8183 15.3438 15.5401 15.3438 15.25V2.75C15.3438 2.45992 15.2285 2.18172 15.0234 1.9766C14.8183 1.77148 14.5401 1.65625 14.25 1.65625ZM1.75 2.59375H3.78125V3.375C3.78125 3.49932 3.83064 3.61855 3.91854 3.70646C4.00645 3.79436 4.12568 3.84375 4.25 3.84375C4.37432 3.84375 4.49355 3.79436 4.58146 3.70646C4.66936 3.61855 4.71875 3.49932 4.71875 3.375V2.59375H11.2812V3.375C11.2812 3.49932 11.3306 3.61855 11.4185 3.70646C11.5065 3.79436 11.6257 3.84375 11.75 3.84375C11.8743 3.84375 11.9935 3.79436 12.0815 3.70646C12.1694 3.61855 12.2188 3.49932 12.2188 3.375V2.59375H14.25C14.2914 2.59375 14.3312 2.61021 14.3605 2.63951C14.3898 2.66882 14.4062 2.70856 14.4062 2.75V5.40625H1.59375V2.75C1.59375 2.70856 1.61021 2.66882 1.63951 2.63951C1.66882 2.61021 1.70856 2.59375 1.75 2.59375ZM14.25 15.4062H1.75C1.70856 15.4062 1.66882 15.3898 1.63951 15.3605C1.61021 15.3312 1.59375 15.2914 1.59375 15.25V6.34375H14.4062V15.25C14.4062 15.2914 14.3898 15.3312 14.3605 15.3605C14.3312 15.3898 14.2914 15.4062 14.25 15.4062ZM6.59375 8.375V13.375C6.59375 13.4993 6.54436 13.6185 6.45646 13.7065C6.36855 13.7944 6.24932 13.8438 6.125 13.8438C6.00068 13.8438 5.88145 13.7944 5.79354 13.7065C5.70564 13.6185 5.65625 13.4993 5.65625 13.375V9.13359L5.08437 9.41953C5.02928 9.44703 4.96931 9.4634 4.90789 9.46772C4.84647 9.47204 4.7848 9.46422 4.7264 9.4447C4.668 9.42519 4.61401 9.39436 4.56753 9.35398C4.52104 9.31361 4.48296 9.26447 4.45547 9.20937C4.42797 9.15428 4.4116 9.09431 4.40728 9.03289C4.40296 8.97147 4.41078 8.9098 4.4303 8.8514C4.44981 8.793 4.48064 8.73901 4.52102 8.69253C4.56139 8.64604 4.61053 8.60796 4.66563 8.58047L5.91563 7.95547C5.9871 7.91978 6.06651 7.90296 6.14632 7.90659C6.22613 7.91023 6.30368 7.9342 6.37162 7.97623C6.43956 8.01826 6.49563 8.07696 6.5345 8.14675C6.57338 8.21654 6.59377 8.29511 6.59375 8.375ZM11.2477 10.6602L9.5625 12.9062H11.125C11.2493 12.9062 11.3685 12.9556 11.4565 13.0435C11.5444 13.1315 11.5938 13.2507 11.5938 13.375C11.5938 13.4993 11.5444 13.6185 11.4565 13.7065C11.3685 13.7944 11.2493 13.8438 11.125 13.8438H8.625C8.53795 13.8438 8.45261 13.8195 8.37856 13.7737C8.30451 13.728 8.24467 13.6625 8.20574 13.5846C8.16681 13.5068 8.15033 13.4196 8.15814 13.3329C8.16596 13.2462 8.19777 13.1634 8.25 13.0938L10.5 10.0938C10.5648 10.0086 10.6114 9.91109 10.637 9.8072C10.6625 9.70331 10.6665 9.59529 10.6485 9.48982C10.6306 9.38434 10.5912 9.28367 10.5328 9.19404C10.4744 9.10442 10.3982 9.02774 10.309 8.96877C10.2197 8.9098 10.1193 8.86979 10.0139 8.85122C9.90856 8.83265 9.80051 8.83592 9.69647 8.86082C9.59242 8.88572 9.4946 8.93173 9.40907 8.99598C9.32353 9.06024 9.25211 9.14138 9.19922 9.23438C9.17126 9.29266 9.13156 9.34453 9.08259 9.38673C9.03363 9.42893 8.97646 9.46055 8.91469 9.4796C8.85292 9.49864 8.78788 9.50471 8.72365 9.49741C8.65943 9.49011 8.5974 9.46961 8.54148 9.43719C8.48555 9.40477 8.43694 9.36114 8.39869 9.30903C8.36044 9.25692 8.33338 9.19746 8.31922 9.13439C8.30505 9.07132 8.30408 9.006 8.31637 8.94254C8.32866 8.87908 8.35394 8.81885 8.39062 8.76562C8.50843 8.56338 8.6663 8.38733 8.85455 8.24827C9.04281 8.1092 9.25748 8.01005 9.48542 7.95689C9.71335 7.90373 9.94974 7.89768 10.1801 7.93912C10.4104 7.98056 10.6299 8.06861 10.825 8.19787C11.0201 8.32713 11.1868 8.49488 11.3148 8.69084C11.4428 8.88679 11.5294 9.10682 11.5693 9.33744C11.6093 9.56806 11.6017 9.8044 11.547 10.032C11.4924 10.2596 11.3919 10.4736 11.2516 10.6609L11.2477 10.6602Z"/>
</mask>
<path d="M14.25 1.65625H12.2188V0.875C12.2188 0.75068 12.1694 0.631451 12.0815 0.543544C11.9935 0.455636 11.8743 0.40625 11.75 0.40625C11.6257 0.40625 11.5065 0.455636 11.4185 0.543544C11.3306 0.631451 11.2812 0.75068 11.2812 0.875V1.65625H4.71875V0.875C4.71875 0.75068 4.66936 0.631451 4.58146 0.543544C4.49355 0.455636 4.37432 0.40625 4.25 0.40625C4.12568 0.40625 4.00645 0.455636 3.91854 0.543544C3.83064 0.631451 3.78125 0.75068 3.78125 0.875V1.65625H1.75C1.45992 1.65625 1.18172 1.77148 0.976602 1.9766C0.771484 2.18172 0.65625 2.45992 0.65625 2.75V15.25C0.65625 15.5401 0.771484 15.8183 0.976602 16.0234C1.18172 16.2285 1.45992 16.3438 1.75 16.3438H14.25C14.5401 16.3438 14.8183 16.2285 15.0234 16.0234C15.2285 15.8183 15.3438 15.5401 15.3438 15.25V2.75C15.3438 2.45992 15.2285 2.18172 15.0234 1.9766C14.8183 1.77148 14.5401 1.65625 14.25 1.65625ZM1.75 2.59375H3.78125V3.375C3.78125 3.49932 3.83064 3.61855 3.91854 3.70646C4.00645 3.79436 4.12568 3.84375 4.25 3.84375C4.37432 3.84375 4.49355 3.79436 4.58146 3.70646C4.66936 3.61855 4.71875 3.49932 4.71875 3.375V2.59375H11.2812V3.375C11.2812 3.49932 11.3306 3.61855 11.4185 3.70646C11.5065 3.79436 11.6257 3.84375 11.75 3.84375C11.8743 3.84375 11.9935 3.79436 12.0815 3.70646C12.1694 3.61855 12.2188 3.49932 12.2188 3.375V2.59375H14.25C14.2914 2.59375 14.3312 2.61021 14.3605 2.63951C14.3898 2.66882 14.4062 2.70856 14.4062 2.75V5.40625H1.59375V2.75C1.59375 2.70856 1.61021 2.66882 1.63951 2.63951C1.66882 2.61021 1.70856 2.59375 1.75 2.59375ZM14.25 15.4062H1.75C1.70856 15.4062 1.66882 15.3898 1.63951 15.3605C1.61021 15.3312 1.59375 15.2914 1.59375 15.25V6.34375H14.4062V15.25C14.4062 15.2914 14.3898 15.3312 14.3605 15.3605C14.3312 15.3898 14.2914 15.4062 14.25 15.4062ZM6.59375 8.375V13.375C6.59375 13.4993 6.54436 13.6185 6.45646 13.7065C6.36855 13.7944 6.24932 13.8438 6.125 13.8438C6.00068 13.8438 5.88145 13.7944 5.79354 13.7065C5.70564 13.6185 5.65625 13.4993 5.65625 13.375V9.13359L5.08437 9.41953C5.02928 9.44703 4.96931 9.4634 4.90789 9.46772C4.84647 9.47204 4.7848 9.46422 4.7264 9.4447C4.668 9.42519 4.61401 9.39436 4.56753 9.35398C4.52104 9.31361 4.48296 9.26447 4.45547 9.20937C4.42797 9.15428 4.4116 9.09431 4.40728 9.03289C4.40296 8.97147 4.41078 8.9098 4.4303 8.8514C4.44981 8.793 4.48064 8.73901 4.52102 8.69253C4.56139 8.64604 4.61053 8.60796 4.66563 8.58047L5.91563 7.95547C5.9871 7.91978 6.06651 7.90296 6.14632 7.90659C6.22613 7.91023 6.30368 7.9342 6.37162 7.97623C6.43956 8.01826 6.49563 8.07696 6.5345 8.14675C6.57338 8.21654 6.59377 8.29511 6.59375 8.375ZM11.2477 10.6602L9.5625 12.9062H11.125C11.2493 12.9062 11.3685 12.9556 11.4565 13.0435C11.5444 13.1315 11.5938 13.2507 11.5938 13.375C11.5938 13.4993 11.5444 13.6185 11.4565 13.7065C11.3685 13.7944 11.2493 13.8438 11.125 13.8438H8.625C8.53795 13.8438 8.45261 13.8195 8.37856 13.7737C8.30451 13.728 8.24467 13.6625 8.20574 13.5846C8.16681 13.5068 8.15033 13.4196 8.15814 13.3329C8.16596 13.2462 8.19777 13.1634 8.25 13.0938L10.5 10.0938C10.5648 10.0086 10.6114 9.91109 10.637 9.8072C10.6625 9.70331 10.6665 9.59529 10.6485 9.48982C10.6306 9.38434 10.5912 9.28367 10.5328 9.19404C10.4744 9.10442 10.3982 9.02774 10.309 8.96877C10.2197 8.9098 10.1193 8.86979 10.0139 8.85122C9.90856 8.83265 9.80051 8.83592 9.69647 8.86082C9.59242 8.88572 9.4946 8.93173 9.40907 8.99598C9.32353 9.06024 9.25211 9.14138 9.19922 9.23438C9.17126 9.29266 9.13156 9.34453 9.08259 9.38673C9.03363 9.42893 8.97646 9.46055 8.91469 9.4796C8.85292 9.49864 8.78788 9.50471 8.72365 9.49741C8.65943 9.49011 8.5974 9.46961 8.54148 9.43719C8.48555 9.40477 8.43694 9.36114 8.39869 9.30903C8.36044 9.25692 8.33338 9.19746 8.31922 9.13439C8.30505 9.07132 8.30408 9.006 8.31637 8.94254C8.32866 8.87908 8.35394 8.81885 8.39062 8.76562C8.50843 8.56338 8.6663 8.38733 8.85455 8.24827C9.04281 8.1092 9.25748 8.01005 9.48542 7.95689C9.71335 7.90373 9.94974 7.89768 10.1801 7.93912C10.4104 7.98056 10.6299 8.06861 10.825 8.19787C11.0201 8.32713 11.1868 8.49488 11.3148 8.69084C11.4428 8.88679 11.5294 9.10682 11.5693 9.33744C11.6093 9.56806 11.6017 9.8044 11.547 10.032C11.4924 10.2596 11.3919 10.4736 11.2516 10.6609L11.2477 10.6602Z" fill="#9E9E9E"/>
<path d="M14.25 1.65625H12.2188V0.875C12.2188 0.75068 12.1694 0.631451 12.0815 0.543544C11.9935 0.455636 11.8743 0.40625 11.75 0.40625C11.6257 0.40625 11.5065 0.455636 11.4185 0.543544C11.3306 0.631451 11.2812 0.75068 11.2812 0.875V1.65625H4.71875V0.875C4.71875 0.75068 4.66936 0.631451 4.58146 0.543544C4.49355 0.455636 4.37432 0.40625 4.25 0.40625C4.12568 0.40625 4.00645 0.455636 3.91854 0.543544C3.83064 0.631451 3.78125 0.75068 3.78125 0.875V1.65625H1.75C1.45992 1.65625 1.18172 1.77148 0.976602 1.9766C0.771484 2.18172 0.65625 2.45992 0.65625 2.75V15.25C0.65625 15.5401 0.771484 15.8183 0.976602 16.0234C1.18172 16.2285 1.45992 16.3438 1.75 16.3438H14.25C14.5401 16.3438 14.8183 16.2285 15.0234 16.0234C15.2285 15.8183 15.3438 15.5401 15.3438 15.25V2.75C15.3438 2.45992 15.2285 2.18172 15.0234 1.9766C14.8183 1.77148 14.5401 1.65625 14.25 1.65625ZM1.75 2.59375H3.78125V3.375C3.78125 3.49932 3.83064 3.61855 3.91854 3.70646C4.00645 3.79436 4.12568 3.84375 4.25 3.84375C4.37432 3.84375 4.49355 3.79436 4.58146 3.70646C4.66936 3.61855 4.71875 3.49932 4.71875 3.375V2.59375H11.2812V3.375C11.2812 3.49932 11.3306 3.61855 11.4185 3.70646C11.5065 3.79436 11.6257 3.84375 11.75 3.84375C11.8743 3.84375 11.9935 3.79436 12.0815 3.70646C12.1694 3.61855 12.2188 3.49932 12.2188 3.375V2.59375H14.25C14.2914 2.59375 14.3312 2.61021 14.3605 2.63951C14.3898 2.66882 14.4062 2.70856 14.4062 2.75V5.40625H1.59375V2.75C1.59375 2.70856 1.61021 2.66882 1.63951 2.63951C1.66882 2.61021 1.70856 2.59375 1.75 2.59375ZM14.25 15.4062H1.75C1.70856 15.4062 1.66882 15.3898 1.63951 15.3605C1.61021 15.3312 1.59375 15.2914 1.59375 15.25V6.34375H14.4062V15.25C14.4062 15.2914 14.3898 15.3312 14.3605 15.3605C14.3312 15.3898 14.2914 15.4062 14.25 15.4062ZM6.59375 8.375V13.375C6.59375 13.4993 6.54436 13.6185 6.45646 13.7065C6.36855 13.7944 6.24932 13.8438 6.125 13.8438C6.00068 13.8438 5.88145 13.7944 5.79354 13.7065C5.70564 13.6185 5.65625 13.4993 5.65625 13.375V9.13359L5.08437 9.41953C5.02928 9.44703 4.96931 9.4634 4.90789 9.46772C4.84647 9.47204 4.7848 9.46422 4.7264 9.4447C4.668 9.42519 4.61401 9.39436 4.56753 9.35398C4.52104 9.31361 4.48296 9.26447 4.45547 9.20937C4.42797 9.15428 4.4116 9.09431 4.40728 9.03289C4.40296 8.97147 4.41078 8.9098 4.4303 8.8514C4.44981 8.793 4.48064 8.73901 4.52102 8.69253C4.56139 8.64604 4.61053 8.60796 4.66563 8.58047L5.91563 7.95547C5.9871 7.91978 6.06651 7.90296 6.14632 7.90659C6.22613 7.91023 6.30368 7.9342 6.37162 7.97623C6.43956 8.01826 6.49563 8.07696 6.5345 8.14675C6.57338 8.21654 6.59377 8.29511 6.59375 8.375ZM11.2477 10.6602L9.5625 12.9062H11.125C11.2493 12.9062 11.3685 12.9556 11.4565 13.0435C11.5444 13.1315 11.5938 13.2507 11.5938 13.375C11.5938 13.4993 11.5444 13.6185 11.4565 13.7065C11.3685 13.7944 11.2493 13.8438 11.125 13.8438H8.625C8.53795 13.8438 8.45261 13.8195 8.37856 13.7737C8.30451 13.728 8.24467 13.6625 8.20574 13.5846C8.16681 13.5068 8.15033 13.4196 8.15814 13.3329C8.16596 13.2462 8.19777 13.1634 8.25 13.0938L10.5 10.0938C10.5648 10.0086 10.6114 9.91109 10.637 9.8072C10.6625 9.70331 10.6665 9.59529 10.6485 9.48982C10.6306 9.38434 10.5912 9.28367 10.5328 9.19404C10.4744 9.10442 10.3982 9.02774 10.309 8.96877C10.2197 8.9098 10.1193 8.86979 10.0139 8.85122C9.90856 8.83265 9.80051 8.83592 9.69647 8.86082C9.59242 8.88572 9.4946 8.93173 9.40907 8.99598C9.32353 9.06024 9.25211 9.14138 9.19922 9.23438C9.17126 9.29266 9.13156 9.34453 9.08259 9.38673C9.03363 9.42893 8.97646 9.46055 8.91469 9.4796C8.85292 9.49864 8.78788 9.50471 8.72365 9.49741C8.65943 9.49011 8.5974 9.46961 8.54148 9.43719C8.48555 9.40477 8.43694 9.36114 8.39869 9.30903C8.36044 9.25692 8.33338 9.19746 8.31922 9.13439C8.30505 9.07132 8.30408 9.006 8.31637 8.94254C8.32866 8.87908 8.35394 8.81885 8.39062 8.76562C8.50843 8.56338 8.6663 8.38733 8.85455 8.24827C9.04281 8.1092 9.25748 8.01005 9.48542 7.95689C9.71335 7.90373 9.94974 7.89768 10.1801 7.93912C10.4104 7.98056 10.6299 8.06861 10.825 8.19787C11.0201 8.32713 11.1868 8.49488 11.3148 8.69084C11.4428 8.88679 11.5294 9.10682 11.5693 9.33744C11.6093 9.56806 11.6017 9.8044 11.547 10.032C11.4924 10.2596 11.3919 10.4736 11.2516 10.6609L11.2477 10.6602Z" stroke="#9E9E9E" stroke-width="0.2" mask="url(#path-1-outside-1_2357_28858)"/>
</svg>
