<svg width="60" height="60" viewBox="0 0 60 60" fill="none" xmlns="http://www.w3.org/2000/svg">
<path d="M31.8512 18H13.1998C11.8743 18 10.7998 19.0745 10.7998 20.4V39.6C10.7998 40.9255 11.8743 42 13.1998 42H13.6768C14.5953 42 15.4332 41.4758 15.835 40.6499L16.2878 39.7192C16.5149 39.2523 16.8872 38.8717 17.349 38.6345L19.0434 37.7637C19.7319 37.4099 20.5488 37.4099 21.2373 37.7637L22.8335 38.584C23.3551 38.852 23.7605 39.3017 23.9732 39.8482L24.2153 40.4705C24.5742 41.3926 25.4624 42 26.4519 42H34.2512H37.8925C38.7012 42 39.4556 41.5927 39.8992 40.9165L40.8638 39.4462C41.0566 39.1523 41.3116 38.9044 41.6108 38.7199L42.923 37.9107C43.6383 37.4696 44.5323 37.4347 45.2797 37.8189L46.8748 38.6385C47.3316 38.8733 47.7011 39.2484 47.9289 39.7088L48.4018 40.6644C48.8065 41.4824 49.6402 42 50.5528 42H51.5998C52.9253 42 53.9998 40.9255 53.9998 39.6V36.4587C53.9998 36.1556 53.9424 35.8553 53.8307 35.5736L50.898 28.1816C50.5352 27.2671 49.651 26.6667 48.6671 26.6667H36.6512C35.3258 26.6667 34.2512 25.5922 34.2512 24.2667V20.4C34.2512 19.0745 33.1767 18 31.8512 18Z" fill="#A8CF45"/>
<path d="M19.999 47.5C21.3251 47.5 22.5969 46.9732 23.5346 46.0355C24.4722 45.0979 24.999 43.8261 24.999 42.5C24.999 41.1739 24.4722 39.9021 23.5346 38.9645C22.5969 38.0268 21.3251 37.5 19.999 37.5C18.6729 37.5 17.4012 38.0268 16.4635 38.9645C15.5258 39.9021 14.999 41.1739 14.999 42.5C14.999 43.8261 15.5258 45.0979 16.4635 46.0355C17.4012 46.9732 18.6729 47.5 19.999 47.5ZM44.999 47.5C46.3251 47.5 47.5969 46.9732 48.5346 46.0355C49.4722 45.0979 49.999 43.8261 49.999 42.5C49.999 41.1739 49.4722 39.9021 48.5346 38.9645C47.5969 38.0268 46.3251 37.5 44.999 37.5C43.6729 37.5 42.4012 38.0268 41.4635 38.9645C40.5258 39.9021 39.999 41.1739 39.999 42.5C39.999 43.8261 40.5258 45.0979 41.4635 46.0355C42.4012 46.9732 43.6729 47.5 44.999 47.5Z" stroke="#9E9E9E" stroke-width="2.64" stroke-miterlimit="1.5" stroke-linecap="round" stroke-linejoin="round"/>
<path d="M25.124 42.5H37.499V16.5C37.499 16.1022 37.341 15.7206 37.0597 15.4393C36.7784 15.158 36.3968 15 35.999 15H2.49902M14.124 42.5H8.99902C8.80204 42.5 8.60699 42.4612 8.425 42.3858C8.24301 42.3104 8.07765 42.1999 7.93836 42.0607C7.79908 41.9214 7.68859 41.756 7.6132 41.574C7.53782 41.392 7.49902 41.197 7.49902 41V28.75" stroke="#9E9E9E" stroke-width="2.64" stroke-linecap="round"/>
<path d="M4.99902 22.5H14.999" stroke="#9E9E9E" stroke-width="2.64" stroke-linecap="round" stroke-linejoin="round"/>
<path d="M37.499 22.5H51.524C51.814 22.5001 52.0977 22.5842 52.3408 22.7421C52.584 22.9001 52.7761 23.1251 52.894 23.39L57.369 33.46C57.4543 33.6512 57.4986 33.8581 57.499 34.0675V41C57.499 41.197 57.4602 41.392 57.3848 41.574C57.3095 41.756 57.199 41.9214 57.0597 42.0607C56.9204 42.1999 56.755 42.3104 56.573 42.3858C56.3911 42.4612 56.196 42.5 55.999 42.5H51.249M37.499 42.5H39.999" stroke="#9E9E9E" stroke-width="2.64" stroke-linecap="round"/>
</svg>
