<svg width="16" height="12" viewBox="0 0 16 12" fill="none" xmlns="http://www.w3.org/2000/svg">
<path d="M10.0769 3.9375V2.71875C10.0769 2.39552 9.94016 2.08552 9.69673 1.85696C9.45329 1.6284 9.12312 1.5 8.77885 1.5H2.54808C2.20381 1.5 1.87363 1.6284 1.6302 1.85696C1.38676 2.08552 1.25 2.39552 1.25 2.71875V10.0312C1.25 10.3545 1.38676 10.6645 1.6302 10.893C1.87363 11.1216 2.20381 11.25 2.54808 11.25H8.77885C9.12312 11.25 9.45329 11.1216 9.69673 10.893C9.94016 10.6645 10.0769 10.3545 10.0769 10.0312V8.8125M12.1538 3.9375L14.75 6.375M14.75 6.375L12.1538 8.8125M14.75 6.375H5.89063" stroke="#2A2A2A" stroke-width="1.125" stroke-linecap="round" stroke-linejoin="round"/>
</svg>
