<svg width="30" height="30" viewBox="0 0 30 30" fill="none" xmlns="http://www.w3.org/2000/svg">
<rect width="30" height="30" rx="15" fill="#F2F2F2"/>
<g clip-path="url(#clip0_3027_42848)">
<path d="M17.0769 12.9375V11.7187C17.0769 11.3955 16.9402 11.0855 16.6967 10.857C16.4533 10.6284 16.1231 10.5 15.7788 10.5H9.54808C9.20381 10.5 8.87363 10.6284 8.6302 10.857C8.38676 11.0855 8.25 11.3955 8.25 11.7187V19.0312C8.25 19.3545 8.38676 19.6645 8.6302 19.893C8.87363 20.1216 9.20381 20.25 9.54808 20.25H15.7788C16.1231 20.25 16.4533 20.1216 16.6967 19.893C16.9402 19.6645 17.0769 19.3545 17.0769 19.0312V17.8125M19.1538 12.9375L21.75 15.375M21.75 15.375L19.1538 17.8125M21.75 15.375H12.8906" stroke="#595959" stroke-width="1.125" stroke-linecap="round" stroke-linejoin="round"/>
</g>
<defs>
<clipPath id="clip0_3027_42848">
<rect width="15" height="15" fill="white" transform="translate(7.5 7.5)"/>
</clipPath>
</defs>
</svg>
