<svg width="14" height="12" viewBox="0 0 14 12" fill="none" xmlns="http://www.w3.org/2000/svg">

    <!--<defs xmlns="http://www.w3.org/2000/svg">
        <style>
            g {
                display: none;
            }
            g:target, g:target * {
                display: inline;
            }
        </style>
    </defs>-->

<path d="M9.85922 1.28777e-06C9.37988 -0.000403218 8.90528 0.0944918 8.46326 0.279122C8.02123 0.463753 7.62068 0.734402 7.28508 1.0752L6.75 1.6128L6.21492 1.0752C5.87891 0.735017 5.47825 0.464838 5.03631 0.280413C4.59436 0.0959877 4.11997 0.00100677 3.64078 0.00100677C3.16159 0.00100677 2.6872 0.0959877 2.24525 0.280413C1.8033 0.464838 1.40265 0.735017 1.06663 1.0752C0.383029 1.76814 0 2.70065 0 3.672C0 4.64335 0.383029 5.57586 1.06663 6.2688L6.75 12L12.4334 6.2688C13.117 5.57586 13.5 4.64335 13.5 3.672C13.5 2.70065 13.117 1.76814 12.4334 1.0752C12.0973 0.735051 11.6966 0.464827 11.2547 0.280243C10.8128 0.0956595 10.3384 0.000399167 9.85922 1.28777e-06Z" fill="#A8CF45"/>

</svg>

