<svg width="15" height="15" viewBox="0 0 15 15" fill="none" xmlns="http://www.w3.org/2000/svg">
<path d="M10.0733 2.09961C9.64185 2.09925 9.21471 2.18465 8.81688 2.35082C8.41906 2.51699 8.05856 2.76057 7.75652 3.06729L7.27495 3.55113L6.79338 3.06729C6.49097 2.76112 6.13038 2.51796 5.73263 2.35198C5.33488 2.186 4.90792 2.10052 4.47665 2.10052C4.04538 2.10052 3.61843 2.186 3.22068 2.35198C2.82293 2.51796 2.46233 2.76112 2.15992 3.06729C1.54468 3.69094 1.19995 4.5302 1.19995 5.40441C1.19995 6.27862 1.54468 7.11788 2.15992 7.74153L7.27495 12.8996L12.39 7.74153C13.0052 7.11788 13.35 6.27862 13.35 5.40441C13.35 4.5302 13.0052 3.69094 12.39 3.06729C12.0875 2.76115 11.7269 2.51795 11.3292 2.35183C10.9315 2.1857 10.5045 2.09997 10.0733 2.09961Z" fill="#D4E6A5"/>
</svg>
