<svg width="31" height="33" viewBox="0 0 31 33" fill="none" xmlns="http://www.w3.org/2000/svg">
<path d="M18.25 32.25C13.3903 32.25 6 20.2188 6 13.2153C6 6.33425 11.481 0.75 18.25 0.75C25.019 0.75 30.5 6.33425 30.5 13.2153C30.5 20.2188 23.1098 32.25 18.25 32.25Z" fill="#A8CF45"/>
<path fill-rule="evenodd" clip-rule="evenodd" d="M13 18.25C14.3924 18.25 15.7277 17.6969 16.7123 16.7123C17.6969 15.7277 18.25 14.3924 18.25 13C18.25 11.6076 17.6969 10.2723 16.7123 9.28769C15.7277 8.30312 14.3924 7.75 13 7.75C11.6076 7.75 10.2723 8.30312 9.28769 9.28769C8.30312 10.2723 7.75 11.6076 7.75 13C7.75 14.3924 8.30312 15.7277 9.28769 16.7123C10.2723 17.6969 11.6076 18.25 13 18.25ZM13 9.5C13.9283 9.5 14.8185 9.86875 15.4749 10.5251C16.1313 11.1815 16.5 12.0717 16.5 13C16.5 13.9283 16.1313 14.8185 15.4749 15.4749C14.8185 16.1313 13.9283 16.5 13 16.5C12.0717 16.5 11.1815 16.1313 10.5251 15.4749C9.86875 14.8185 9.5 13.9283 9.5 13C9.5 12.0717 9.86875 11.1815 10.5251 10.5251C11.1815 9.86875 12.0717 9.5 13 9.5Z" fill="#9E9E9E"/>
<path fill-rule="evenodd" clip-rule="evenodd" d="M0.75 13.2153C0.75 20.2188 8.14025 32.25 13 32.25C17.8598 32.25 25.25 20.2188 25.25 13.2153C25.25 6.33425 19.769 0.75 13 0.75C6.231 0.75 0.75 6.33425 0.75 13.2153ZM23.5 13.2153C23.5 19.3752 16.668 30.5 13 30.5C9.332 30.5 2.5 19.3752 2.5 13.2153C2.5 7.295 7.204 2.5 13 2.5C18.796 2.5 23.5 7.295 23.5 13.2153Z" fill="#9E9E9E"/>
</svg>
