<svg width="30" height="30" viewBox="0 0 30 30" fill="none" xmlns="http://www.w3.org/2000/svg">
<path d="M15.0001 2.5C9.48635 2.5 5.0001 6.98625 5.0001 12.4937C4.96851 19.5151 12.2991 25.491 14.4346 27.0893C14.7717 27.3415 15.2247 27.3433 15.5599 27.0885C17.6713 25.4842 25.0312 19.3957 25.0001 12.5C25.0001 6.98625 20.5139 2.5 15.0001 2.5ZM15.0001 17.5C12.2376 17.5 10.0001 15.2625 10.0001 12.5C10.0001 9.7375 12.2376 7.5 15.0001 7.5C17.7626 7.5 20.0001 9.7375 20.0001 12.5C20.0001 15.2625 17.7626 17.5 15.0001 17.5Z" fill="#595959"/>
</svg>
