<svg width="36" height="35" viewBox="0 0 36 35" fill="none" xmlns="http://www.w3.org/2000/svg">
<g clip-path="url(#clip0_2983_45834)">
<path d="M12.1425 1.5654C11.7225 1.29886 11.2137 1.2101 10.7283 1.31863C10.2428 1.42717 9.82029 1.72412 9.55375 2.14415C9.28721 2.56419 9.19844 3.07291 9.30698 3.55839C9.41551 4.04388 9.71246 4.46636 10.1325 4.7329L12.5275 6.2504H4.25C2.445 6.2504 0.5 7.4729 0.5 9.5154V13.0554C0.5 14.9604 2.1925 16.1554 3.885 16.3054L3.8425 16.3179H16.4375V9.7104H19.5625V16.3179H32.1575L32.1125 16.3029C33.81 16.1529 35.5 14.9604 35.5 13.0554V9.5154C35.5 7.4729 33.555 6.2504 31.75 6.2504H23.4725L25.8675 4.7329C26.2875 4.46669 26.5846 4.04453 26.6934 3.55928C26.8022 3.07403 26.7137 2.56544 26.4475 2.1454C26.1813 1.72537 25.7591 1.42829 25.2739 1.31952C24.7886 1.21074 24.28 1.29919 23.86 1.5654L18 5.2804L12.1425 1.5654ZM33 19.4429H19.5625V35.0004H29.25C30.2446 35.0004 31.1984 34.6053 31.9017 33.9021C32.6049 33.1988 33 32.245 33 31.2504V19.4429ZM16.4375 19.4429H3V31.2504C3 32.245 3.39509 33.1988 4.09835 33.9021C4.80161 34.6053 5.75544 35.0004 6.75 35.0004H16.4375V19.4429Z" fill="#595959"/>
<path d="M23.4922 8.45117H12.2422" stroke="#595959" stroke-width="1.25" stroke-linecap="round" stroke-linejoin="round"/>
</g>
<defs>
<clipPath id="clip0_2983_45834">
<rect width="35" height="35" fill="white" transform="translate(0.5)"/>
</clipPath>
</defs>
</svg>
