<svg width="60" height="60" viewBox="0 0 60 60" fill="none" xmlns="http://www.w3.org/2000/svg">
<path d="M13.2002 43.2V31.2C13.2002 30.5373 13.7375 30 14.4002 30H45.6002C46.2629 30 46.8002 30.5373 46.8002 31.2V43.2C46.8002 43.8627 46.2629 44.4 45.6002 44.4H14.4002C13.7375 44.4 13.2002 43.8627 13.2002 43.2Z" fill="#A8CF45"/>
<path d="M19.8895 16.7216H8.88C8.06905 16.7216 7.29093 17.0404 6.71693 17.6084C6.14286 18.1764 5.82 18.9473 5.82 19.7515V27.351C5.82 28.1552 6.14286 28.926 6.71693 29.4941C7.29093 30.062 8.06905 30.3808 8.88 30.3808H9.66V46.3498C9.66 47.154 9.98286 47.9248 10.5569 48.4929C11.1309 49.0609 11.909 49.3796 12.72 49.3796H47.28C48.091 49.3796 48.8691 49.0609 49.4431 48.4929C50.0171 47.9248 50.34 47.154 50.34 46.3498V30.3808H51.12C51.931 30.3808 52.7091 30.062 53.2831 29.4941C53.8571 28.926 54.18 28.1552 54.18 27.351V19.7515C54.18 18.9473 53.8571 18.1764 53.2831 17.6084C52.7091 17.0404 51.931 16.7216 51.12 16.7216H40.1105C40.9529 16.2862 41.7424 15.7551 42.4627 15.1385L42.4645 15.1369C43.1139 14.5655 43.6371 13.8674 44.0012 13.0863C44.3651 12.3054 44.5622 11.4586 44.5799 10.5987M19.8895 16.7216L22.67 3.42253M19.8895 16.7216C19.0471 16.2862 18.2576 15.7551 17.5373 15.1385L17.5355 15.1369C16.8861 14.5655 16.3629 13.8674 15.9988 13.0863C15.6349 12.3054 15.4378 11.4584 15.4201 10.5985M19.8895 16.7216L15.4201 10.5985M44.5799 10.5987C44.5799 10.5989 44.5799 10.5991 44.5799 10.5993L44.4 10.594L44.58 10.5977C44.58 10.5981 44.5799 10.5984 44.5799 10.5987ZM44.5799 10.5987C44.6078 9.6487 44.4392 8.70308 44.0846 7.81991C43.73 6.93654 43.1967 6.13432 42.5177 5.4624C41.8387 4.79049 41.0282 4.26304 40.136 3.91231C39.2441 3.56168 38.2892 3.39503 37.33 3.42253C36.4618 3.44008 35.6066 3.6349 34.8179 3.99483C34.029 4.35487 33.3236 4.87239 32.7461 5.51504L32.7459 5.51528C31.4403 6.97329 30.5773 8.82413 30.0006 10.6378C29.4273 8.82458 28.5638 6.9774 27.2541 5.51525L27.2539 5.51504C26.6764 4.87239 25.971 4.35487 25.1821 3.99483C24.3934 3.6349 23.5382 3.44008 22.67 3.42253M22.67 3.42253C22.6703 3.42254 22.6705 3.42255 22.6708 3.42256L22.6656 3.60237L22.6692 3.42252C22.6695 3.42252 22.6697 3.42253 22.67 3.42253ZM15.4201 10.5985C15.42 10.5983 15.42 10.598 15.42 10.5977L15.6 10.594M15.4201 10.5985C15.4201 10.5988 15.4201 10.5991 15.4201 10.5993L15.6 10.594M15.6 10.594C15.5728 9.66859 15.737 8.7474 16.0824 7.88697C16.4279 7.02654 16.9473 6.24502 17.6089 5.59035C18.2705 4.93568 19.0603 4.42167 19.9299 4.07984C20.7994 3.738 21.7303 3.57556 22.6656 3.60248C23.5095 3.61944 24.3408 3.80876 25.1074 4.15858C25.8739 4.5084 26.5591 5.01117 27.12 5.63535C28.4668 7.13887 29.3386 9.06348 29.9063 10.9423L17.6544 15.0018C17.0236 14.4467 16.5155 13.7687 16.162 13.0102C15.8085 12.2517 15.6171 11.4291 15.6 10.594ZM42.3 10.5338L42.3001 10.5319C42.318 9.90226 42.2082 9.27539 41.9772 8.68831C41.7461 8.10123 41.3985 7.56578 40.9547 7.11364C40.5109 6.66148 39.98 6.30181 39.3932 6.05594C38.8064 5.8101 38.1757 5.68306 37.5384 5.68236C37.5383 5.68236 37.5383 5.68236 37.5382 5.68236M42.3 10.5338L37.5384 5.50236L37.5382 5.68236M42.3 10.5338C42.2901 11.0839 42.1655 11.6262 41.934 12.1266C41.7025 12.6268 41.3692 13.0746 40.9547 13.4417C39.5346 14.6852 37.5821 15.4604 35.7045 15.9412C33.9462 16.3915 32.2689 16.5799 31.1885 16.658C31.2718 15.5963 31.4639 13.9451 31.9201 12.2108C32.4077 10.357 33.1926 8.42524 34.4539 7.01428C34.8249 6.60423 35.2775 6.27422 35.7835 6.04499C36.2893 5.81589 36.8374 5.69243 37.3936 5.68236M42.3 10.5338L37.3936 5.68236M37.5382 5.68236L37.3936 5.68236M37.5382 5.68236L37.3936 5.68236M17.6999 10.5319L17.7 10.5352C17.7057 11.0868 17.8267 11.6314 18.0555 12.1346C18.2842 12.6375 18.6155 13.0883 19.0288 13.4586C20.4537 14.702 22.4086 15.4771 24.2859 15.9578C26.0443 16.4082 27.7196 16.5965 28.7956 16.6747C28.7167 15.6058 28.5269 13.947 28.0724 12.2082C27.5869 10.3508 26.8037 8.41925 25.5462 7.01439C25.1752 6.60429 24.7225 6.27424 24.2165 6.04499C23.7107 5.81589 23.1626 5.69243 22.6064 5.68236L22.4618 5.68236L22.4616 5.68236M17.6999 10.5319L17.52 10.537C17.5014 9.88307 17.6154 9.23204 17.8553 8.6224C18.0952 8.01276 18.4562 7.45686 18.9168 6.98755C19.3774 6.51823 19.9285 6.14501 20.5373 5.88992C21.1461 5.63484 21.8004 5.50306 22.4616 5.50236V5.68236M17.6999 10.5319C17.682 9.90226 17.7918 9.27539 18.0228 8.68831C18.2539 8.10123 18.6015 7.56578 19.0453 7.11364C19.4891 6.66148 20.02 6.30181 20.6068 6.05594C21.1936 5.8101 21.8243 5.68306 22.4616 5.68236M17.6999 10.5319L22.4616 5.68236M8.1 27.351V19.7515C8.1 19.5479 8.18171 19.3522 8.32778 19.2077C8.47392 19.0631 8.67252 18.9815 8.88 18.9815H28.86V28.1209H8.88C8.67252 28.1209 8.47392 28.0394 8.32778 27.8948C8.18171 27.7502 8.1 27.5546 8.1 27.351ZM11.94 46.3498V30.3808H28.86V47.1197H12.72C12.5125 47.1197 12.3139 47.0382 12.1678 46.8936C12.0217 46.749 11.94 46.5534 11.94 46.3498ZM48.06 46.3498C48.06 46.5534 47.9783 46.749 47.8322 46.8936C47.6861 47.0382 47.4875 47.1197 47.28 47.1197H31.14V30.3808H48.06V46.3498ZM51.9 27.351C51.9 27.5546 51.8183 27.7502 51.6722 27.8948C51.5261 28.0394 51.3275 28.1209 51.12 28.1209H31.14V18.9815H51.12C51.3275 18.9815 51.5261 19.0631 51.6722 19.2077C51.8183 19.3522 51.9 19.5479 51.9 19.7515V27.351Z" fill="#9E9E9E" stroke="#9E9E9E" stroke-width="0.36"/>
</svg>
