<svg width="17" height="17" viewBox="0 0 17 17" fill="none" xmlns="http://www.w3.org/2000/svg">
<path d="M9.23125 11.6875C9.12079 11.6875 9.03125 11.598 9.03125 11.4875V7.6375C9.03125 7.52704 8.94171 7.4375 8.83125 7.4375H7.10625C6.99579 7.4375 6.90625 7.52704 6.90625 7.6375V8.3C6.90625 8.41046 6.99579 8.5 7.10625 8.5H7.76875C7.87921 8.5 7.96875 8.58954 7.96875 8.7V11.4875C7.96875 11.598 7.87921 11.6875 7.76875 11.6875H6.575C6.46454 11.6875 6.375 11.777 6.375 11.8875V12.55C6.375 12.6605 6.46454 12.75 6.575 12.75H10.425C10.5355 12.75 10.625 12.6605 10.625 12.55V11.8875C10.625 11.777 10.5355 11.6875 10.425 11.6875H9.23125ZM8.5 4.25C8.34239 4.25 8.18833 4.29674 8.05728 4.3843C7.92623 4.47186 7.8241 4.59631 7.76378 4.74192C7.70347 4.88753 7.68769 5.04776 7.71844 5.20234C7.74918 5.35692 7.82508 5.49891 7.93652 5.61035C8.04797 5.7218 8.18996 5.79769 8.34454 5.82844C8.49912 5.85919 8.65934 5.84341 8.80495 5.78309C8.95056 5.72278 9.07502 5.62064 9.16258 5.48959C9.25014 5.35855 9.29688 5.20448 9.29688 5.04688C9.29688 4.83553 9.21292 4.63284 9.06348 4.4834C8.91403 4.33396 8.71134 4.25 8.5 4.25Z" fill="#A8CF45"/>
<path d="M8.5 15.9375C7.02901 15.9375 5.59104 15.5013 4.36795 14.6841C3.14486 13.8668 2.19158 12.7052 1.62865 11.3462C1.06572 9.98719 0.918435 8.49175 1.20541 7.04902C1.49239 5.60629 2.20074 4.28105 3.2409 3.2409C4.28105 2.20074 5.60629 1.49239 7.04902 1.20541C8.49175 0.918435 9.98719 1.06572 11.3462 1.62865C12.7052 2.19158 13.8668 3.14486 14.6841 4.36795C15.5013 5.59104 15.9375 7.02901 15.9375 8.5C15.9375 10.4726 15.1539 12.3643 13.7591 13.7591C12.3643 15.1539 10.4726 15.9375 8.5 15.9375ZM8.5 2.125C7.23915 2.125 6.00661 2.49889 4.95824 3.19938C3.90988 3.89988 3.09278 4.89552 2.61027 6.0604C2.12776 7.22528 2.00152 8.50707 2.2475 9.7437C2.49348 10.9803 3.10064 12.1162 3.9922 13.0078C4.88376 13.8994 6.01967 14.5065 7.2563 14.7525C8.49293 14.9985 9.77473 14.8722 10.9396 14.3897C12.1045 13.9072 13.1001 13.0901 13.8006 12.0418C14.5011 10.9934 14.875 9.76086 14.875 8.5C14.875 6.80925 14.2034 5.18774 13.0078 3.9922C11.8123 2.79665 10.1908 2.125 8.5 2.125Z" fill="#A8CF45"/>
</svg>
