<svg width="50" height="50" viewBox="0 0 50 50" fill="none" xmlns="http://www.w3.org/2000/svg">
<rect x="10" y="21" width="30" height="22" rx="3" fill="#A8CF45"/>
<path d="M25.0001 26.3333C24.256 26.3362 23.5335 26.5834 22.9436 27.0369C22.3537 27.4904 21.9291 28.1251 21.735 28.8434C21.5409 29.5617 21.5881 30.3239 21.8694 31.0127C22.1506 31.7016 22.6504 32.279 23.2917 32.6562V37.5H26.7501V32.6562C27.2575 32.3561 27.6786 31.9297 27.9725 31.4186C28.2664 30.9075 28.423 30.3291 28.4271 29.7396C28.4271 29.2905 28.3384 28.8458 28.1659 28.4312C27.9934 28.0166 27.7406 27.6402 27.4221 27.3236C27.1036 27.007 26.7256 26.7565 26.31 26.5866C25.8943 26.4166 25.4491 26.3306 25.0001 26.3333Z" stroke="#9E9E9E" stroke-width="2" stroke-linecap="round" stroke-linejoin="round"/>
<path d="M37.8021 18.5104H12.1875C9.70222 18.5104 7.6875 20.5252 7.6875 23.0104V40.8125C7.6875 43.2978 9.70222 45.3125 12.1875 45.3125H37.8021C40.2874 45.3125 42.3021 43.2978 42.3021 40.8125V23.0104C42.3021 20.5252 40.2874 18.5104 37.8021 18.5104Z" stroke="#9E9E9E" stroke-width="2" stroke-linecap="round" stroke-linejoin="round"/>
<path d="M13.9062 18.5104V15.7917C13.9063 12.8467 15.0762 10.0223 17.1586 7.93983C19.241 5.8574 22.0654 4.6875 25.0104 4.6875C27.9554 4.6875 30.7798 5.8574 32.8622 7.93983C34.9447 10.0223 36.1146 12.8467 36.1146 15.7917V18.5104" stroke="#9E9E9E" stroke-width="2" stroke-linecap="round" stroke-linejoin="round"/>
</svg>
