<svg width="36" height="35" viewBox="0 0 36 35" fill="none" xmlns="http://www.w3.org/2000/svg">
<path d="M9.25065 32.084C8.44857 32.084 7.76218 31.7986 7.19148 31.2279C6.62079 30.6572 6.33496 29.9704 6.33398 29.1673V14.584C6.33398 13.7819 6.61982 13.0955 7.19148 12.5248C7.76315 11.9541 8.44954 11.6683 9.25065 11.6673H10.709V8.75065C10.709 6.73329 11.4202 5.01392 12.8425 3.59253C14.2649 2.17114 15.9843 1.45996 18.0007 1.45899C20.017 1.45801 21.7369 2.16919 23.1602 3.59253C24.5836 5.01586 25.2943 6.73523 25.2923 8.75065V11.6673H26.7507C27.5527 11.6673 28.2396 11.9532 28.8113 12.5248C29.3829 13.0965 29.6683 13.7829 29.6673 14.584V29.1673C29.6673 29.9694 29.382 30.6563 28.8113 31.2279C28.2406 31.7996 27.5537 32.085 26.7507 32.084H9.25065ZM18.0007 24.7923C18.8027 24.7923 19.4896 24.507 20.0613 23.9363C20.6329 23.3656 20.9183 22.6787 20.9173 21.8757C20.9163 21.0726 20.631 20.3862 20.0613 19.8165C19.4916 19.2468 18.8047 18.9609 18.0007 18.959C17.1966 18.957 16.5102 19.2429 15.9415 19.8165C15.3727 20.3901 15.0869 21.0765 15.084 21.8757C15.0811 22.6748 15.3669 23.3617 15.9415 23.9363C16.5161 24.5109 17.2025 24.7962 18.0007 24.7923ZM13.6257 11.6673H22.3757V8.75065C22.3757 7.53537 21.9503 6.50239 21.0996 5.65169C20.2489 4.801 19.2159 4.37565 18.0007 4.37565C16.7854 4.37565 15.7524 4.801 14.9017 5.65169C14.051 6.50239 13.6257 7.53537 13.6257 8.75065V11.6673Z" fill="#595959"/>
</svg>
