<svg width="46" height="15" viewBox="0 0 46 15" fill="none" xmlns="http://www.w3.org/2000/svg">
<path d="M42.5922 14.7835L42.1609 12.6089H37.3424L36.5757 14.768L32.7137 14.7758C35.1958 8.75838 37.0396 4.30283 38.2413 1.40528C38.5557 0.647552 39.1134 0.260955 39.9357 0.266753C40.5643 0.272552 41.5897 0.272551 43.0138 0.268685L46 14.7777L42.5922 14.7835ZM38.4253 9.63015H41.5322L40.3727 4.17912L38.4253 9.63015ZM13.5355 0.26482L17.4187 0.268685L11.4157 14.7854L7.48458 14.7816C6.49607 10.9471 5.51984 7.10949 4.55592 3.26869C4.36425 2.50322 3.98475 1.96778 3.2545 1.71456C2.17453 1.35076 1.08959 1.00214 0 0.668814L0 0.268685H6.20425C7.27758 0.268685 7.90433 0.792527 8.10558 1.86727C8.30875 2.94394 8.81858 5.68686 9.63892 10.0902L13.5355 0.26482ZM22.7547 0.268685L19.6861 14.7835L15.9888 14.7777L19.0517 0.26482L22.7547 0.268685ZM30.2488 0C31.3547 0 32.7482 0.347938 33.5493 0.668814L32.9015 3.67655C32.177 3.38273 30.9848 2.98647 29.9824 3C28.5257 3.02513 27.6249 3.64175 27.6249 4.23325C27.6249 5.19588 29.1889 5.68106 30.7989 6.7326C32.6351 7.93106 32.8785 9.00773 32.8555 10.1791C32.8306 12.605 30.7989 15 26.5133 15C24.5583 14.971 23.8529 14.8067 22.2582 14.2345L22.9329 11.0954C24.5563 11.7796 25.2444 11.9981 26.6321 11.9981C27.9028 11.9981 28.9934 11.48 29.003 10.5773C29.0107 9.93557 28.6197 9.61662 27.1937 8.8241C25.7677 8.02964 23.7667 6.9317 23.7935 4.72229C23.8261 1.89626 26.4807 0 30.2488 0Z" fill="#1432C6"/>
</svg>
