<svg width="32" height="25" viewBox="0 0 32 25" fill="none" xmlns="http://www.w3.org/2000/svg">
<g clip-path="url(#clip0_2355_28120)">
<path d="M5.81764 24.875V23.2204C5.81764 22.586 5.43339 22.1724 4.77477 22.1724C4.44552 22.1724 4.08877 22.2827 3.84177 22.6412C3.64977 22.3379 3.37539 22.1724 2.96377 22.1724C2.68927 22.1724 2.41502 22.2551 2.19539 22.5585V22.2276H1.61914V24.875H2.19539V23.4134C2.19539 22.9446 2.44239 22.7239 2.82664 22.7239C3.21064 22.7239 3.40289 22.9722 3.40289 23.4134V24.875H3.97914V23.4134C3.97914 22.9446 4.25339 22.7239 4.61014 22.7239C4.99439 22.7239 5.18639 22.9722 5.18639 23.4134V24.875H5.81764ZM14.3515 22.2276H13.4186V21.4278H12.8424V22.2276H12.321V22.7514H12.8423V23.965C12.8423 24.5718 13.0893 24.9302 13.7479 24.9302C13.9949 24.9302 14.2691 24.8475 14.4614 24.7372L14.2966 24.2407C14.132 24.351 13.94 24.3787 13.8028 24.3787C13.5284 24.3787 13.4186 24.2132 13.4186 23.9374V22.7514H14.3515V22.2276ZM19.236 22.1723C18.9068 22.1723 18.6873 22.3379 18.55 22.5585V22.2276H17.9738V24.875H18.55V23.3858C18.55 22.9446 18.742 22.6964 19.0988 22.6964C19.2085 22.6964 19.3458 22.724 19.4555 22.7515L19.6201 22.2C19.5104 22.1724 19.3458 22.1724 19.236 22.1724M11.8545 22.4483C11.58 22.2552 11.1959 22.1725 10.7843 22.1725C10.1258 22.1725 9.68677 22.5034 9.68677 23.0274C9.68677 23.4688 10.016 23.7169 10.5923 23.7997L10.8666 23.8273C11.1685 23.8823 11.3331 23.9651 11.3331 24.1031C11.3331 24.296 11.1136 24.434 10.7294 24.434C10.3453 24.434 10.0434 24.296 9.85126 24.1582L9.57689 24.5994C9.87877 24.82 10.2904 24.9303 10.7019 24.9303C11.4703 24.9303 11.9094 24.5719 11.9094 24.0754C11.9094 23.6066 11.5526 23.3583 11.0038 23.2757L10.7294 23.248C10.4824 23.2204 10.2904 23.1654 10.2904 22.9999C10.2904 22.8068 10.4824 22.6965 10.7843 22.6965C11.1136 22.6965 11.4429 22.8343 11.6075 22.9171L11.8545 22.4483ZM27.1664 22.1725C26.837 22.1725 26.6175 22.338 26.4803 22.5586V22.2277H25.904V24.8752H26.4803V23.386C26.4803 22.9448 26.6724 22.6965 27.029 22.6965C27.1389 22.6965 27.2761 22.7242 27.3859 22.7517L27.5505 22.2002C27.4408 22.1725 27.2761 22.1725 27.1664 22.1725ZM19.8123 23.5514C19.8123 24.3512 20.361 24.9303 21.2118 24.9303C21.5959 24.9303 21.8703 24.8477 22.1446 24.6271L21.8703 24.1582C21.6508 24.3237 21.4313 24.4063 21.1843 24.4063C20.7178 24.4063 20.3885 24.0754 20.3885 23.5514C20.3885 23.0551 20.7178 22.724 21.1843 22.6965C21.4313 22.6965 21.6508 22.7792 21.8703 22.9448L22.1446 22.4759C21.8703 22.2552 21.5959 22.1725 21.2118 22.1725C20.361 22.1725 19.8123 22.7517 19.8123 23.5514ZM25.1358 23.5514V22.2277H24.5595V22.5586C24.3674 22.3105 24.093 22.1725 23.7363 22.1725C22.9954 22.1725 22.4191 22.7517 22.4191 23.5514C22.4191 24.3512 22.9954 24.9303 23.7363 24.9303C24.1204 24.9303 24.3949 24.7925 24.5595 24.5443V24.8752H25.1358V23.5514ZM23.0228 23.5514C23.0228 23.0826 23.3246 22.6965 23.8185 22.6965C24.285 22.6965 24.6144 23.0551 24.6144 23.5514C24.6144 24.0203 24.285 24.4063 23.8185 24.4063C23.3246 24.3787 23.0228 24.0203 23.0228 23.5514ZM16.1353 22.1725C15.3669 22.1725 14.818 22.724 14.818 23.5514C14.818 24.3788 15.3668 24.9303 16.1626 24.9303C16.5468 24.9303 16.931 24.82 17.2329 24.5719L16.9584 24.1582C16.7389 24.3237 16.4645 24.434 16.1901 24.434C15.8334 24.434 15.4766 24.2685 15.3943 23.7995H17.3426V23.5791C17.3701 22.724 16.8763 22.1725 16.1353 22.1725ZM16.1351 22.6689C16.4918 22.6689 16.7389 22.8896 16.7936 23.3033H15.4216C15.4765 22.9448 15.7235 22.6689 16.1351 22.6689ZM30.4316 23.5514V21.1797H29.8554V22.5586C29.6633 22.3105 29.3889 22.1725 29.0321 22.1725C28.2913 22.1725 27.715 22.7517 27.715 23.5514C27.715 24.3512 28.2913 24.9303 29.0321 24.9303C29.4164 24.9303 29.6908 24.7925 29.8554 24.5443V24.8752H30.4316V23.5514ZM28.3188 23.5514C28.3188 23.0826 28.6205 22.6965 29.1145 22.6965C29.581 22.6965 29.9103 23.0551 29.9103 23.5514C29.9103 24.0203 29.581 24.4063 29.1145 24.4063C28.6205 24.3787 28.3188 24.0203 28.3188 23.5514ZM9.05539 23.5514V22.2277H8.47914V22.5586C8.28702 22.3105 8.01264 22.1725 7.65589 22.1725C6.91502 22.1725 6.33877 22.7517 6.33877 23.5514C6.33877 24.3512 6.91502 24.9303 7.65589 24.9303C8.04014 24.9303 8.31452 24.7925 8.47914 24.5443V24.8752H9.05539V23.5514ZM6.91502 23.5514C6.91502 23.0826 7.21689 22.6965 7.71077 22.6965C8.17727 22.6965 8.50664 23.0551 8.50664 23.5514C8.50664 24.0203 8.17727 24.4063 7.71077 24.4063C7.21689 24.3787 6.91502 24.0203 6.91502 23.5514Z" fill="#2A2A2A"/>
<path d="M11.6621 2.12305H20.3059V17.7325H11.6621V2.12305Z" fill="#FF5F00"/>
<path d="M12.2111 9.92827C12.2111 6.75678 13.6929 3.94372 15.9704 2.12349C14.2966 0.799749 12.1838 0 9.87875 0C4.41787 0 0 4.44007 0 9.92827C0 15.4163 4.41787 19.8565 9.87862 19.8565C12.1836 19.8565 14.2965 19.0568 15.9704 17.7329C13.6929 15.9403 12.2111 13.0997 12.2111 9.92827Z" fill="#EB001B"/>
<path d="M31.9684 9.92827C31.9684 15.4163 27.5505 19.8565 22.0898 19.8565C19.7848 19.8565 17.6719 19.0568 15.998 17.7329C18.303 15.9128 19.7574 13.0997 19.7574 9.92827C19.7574 6.75678 18.2755 3.94372 15.998 2.12349C17.6718 0.799749 19.7848 0 22.0898 0C27.5505 0 31.9684 4.46771 31.9684 9.92827Z" fill="#F79E1B"/>
</g>
<defs>
<clipPath id="clip0_2355_28120">
<rect width="32" height="25" fill="white"/>
</clipPath>
</defs>
</svg>
