<svg width="22" height="22" viewBox="0 0 22 22" fill="none" xmlns="http://www.w3.org/2000/svg">
<path d="M19.6247 13.8456C19.5459 13.8905 19.459 13.9194 19.3689 13.9307C19.2789 13.942 19.1875 13.9355 19.1 13.9114C19.0125 13.8874 18.9305 13.8464 18.8589 13.7908C18.7873 13.7351 18.7274 13.6658 18.6826 13.587L17.0433 10.7259C16.0903 11.3696 15.039 11.8544 13.9304 12.1616L14.4369 15.1968C14.4518 15.2862 14.449 15.3776 14.4285 15.4659C14.4081 15.5541 14.3704 15.6375 14.3177 15.7112C14.265 15.7849 14.1982 15.8475 14.1213 15.8954C14.0443 15.9434 13.9587 15.9757 13.8692 15.9905C13.8324 15.9965 13.7952 15.9997 13.7579 16C13.5946 15.9998 13.4367 15.9417 13.3122 15.8361C13.1877 15.7306 13.1048 15.5844 13.078 15.4235L12.5802 12.4434C11.5304 12.5894 10.4654 12.5894 9.41557 12.4434L8.91775 15.4235C8.89096 15.5847 8.80773 15.7311 8.6829 15.8367C8.55806 15.9423 8.39974 16.0002 8.23616 16C8.19801 15.9998 8.15993 15.9967 8.12228 15.9905C8.03281 15.9757 7.94714 15.9434 7.87018 15.8954C7.79322 15.8475 7.72647 15.7849 7.67375 15.7112C7.62102 15.6375 7.58336 15.5541 7.56291 15.4659C7.54246 15.3776 7.53963 15.2862 7.55457 15.1968L8.06361 12.1616C6.95549 11.8535 5.90479 11.3677 4.95246 10.7233L3.31838 13.587C3.27306 13.6659 3.21262 13.7351 3.14053 13.7906C3.06844 13.8462 2.9861 13.887 2.89822 13.9108C2.81033 13.9346 2.71862 13.9408 2.62831 13.9292C2.53801 13.9175 2.45089 13.8882 2.37192 13.843C2.29295 13.7977 2.22368 13.7373 2.16806 13.6653C2.11244 13.5933 2.07157 13.5111 2.04778 13.4233C2.02398 13.3355 2.01773 13.2439 2.02938 13.1537C2.04103 13.0635 2.07035 12.9765 2.11568 12.8976L3.84121 9.88137C3.23512 9.35833 2.67778 8.78145 2.17607 8.15781C2.1135 8.08803 2.06582 8.00624 2.03595 7.91745C2.00608 7.82865 1.99464 7.73471 2.00232 7.64134C2.01001 7.54798 2.03666 7.45717 2.08065 7.37444C2.12465 7.29171 2.18506 7.2188 2.2582 7.16017C2.33134 7.10154 2.41568 7.05841 2.50606 7.03341C2.59644 7.00842 2.69098 7.00209 2.78389 7.0148C2.87681 7.02751 2.96615 7.05901 3.04648 7.10736C3.1268 7.15571 3.19642 7.21991 3.25108 7.29603C4.68328 9.06612 7.18876 11.174 10.997 11.174C14.8053 11.174 17.3108 9.06354 18.743 7.29603C18.797 7.21835 18.8665 7.15261 18.947 7.1029C19.0276 7.05318 19.1175 7.02056 19.2113 7.00706C19.305 6.99356 19.4005 6.99947 19.4918 7.02442C19.5832 7.04937 19.6684 7.09282 19.7422 7.15209C19.816 7.21135 19.8768 7.28515 19.9209 7.36889C19.9649 7.45264 19.9912 7.54454 19.9981 7.63887C20.0051 7.73321 19.9925 7.82796 19.9612 7.91723C19.9299 8.00651 19.8806 8.0884 19.8163 8.15781C19.3145 8.78145 18.7572 9.35833 18.1511 9.88137L19.8766 12.8976C19.923 12.9762 19.9532 13.0632 19.9656 13.1536C19.978 13.244 19.9723 13.336 19.9489 13.4241C19.9255 13.5123 19.8847 13.595 19.8291 13.6673C19.7734 13.7396 19.704 13.8002 19.6247 13.8456Z" fill="#2A2A2A"/>
</svg>
