<svg width="19" height="19" viewBox="0 0 19 19" fill="none" xmlns="http://www.w3.org/2000/svg">
<path d="M1.58331 3.95768C1.58331 3.74772 1.66672 3.54636 1.81519 3.39789C1.96365 3.24942 2.16502 3.16602 2.37498 3.16602H16.625C16.8349 3.16602 17.0363 3.24942 17.1848 3.39789C17.3332 3.54636 17.4166 3.74772 17.4166 3.95768V15.041C17.4166 15.251 17.3332 15.4523 17.1848 15.6008C17.0363 15.7493 16.8349 15.8327 16.625 15.8327H2.37498C2.16502 15.8327 1.96365 15.7493 1.81519 15.6008C1.66672 15.4523 1.58331 15.251 1.58331 15.041V3.95768Z" stroke="#9E9E9E" stroke-width="1.5" stroke-linejoin="round"/>
<path d="M1.58331 6.33398H17.4166" stroke="#9E9E9E" stroke-width="1.5" stroke-linecap="square" stroke-linejoin="round"/>
<path d="M10.6875 12.6673H14.25M17.4166 3.95898V10.2923M1.58331 3.95898V10.2923" stroke="#9E9E9E" stroke-width="1.5" stroke-linecap="round" stroke-linejoin="round"/>
</svg>
