<svg width="19" height="19" viewBox="0 0 19 19" fill="none" xmlns="http://www.w3.org/2000/svg">
<g clip-path="url(#clip0_4577_14656)">
<path d="M11.7009 2.89149C11.9902 2.60211 12.3338 2.37256 12.7119 2.21595C13.09 2.05934 13.4952 1.97873 13.9045 1.97873C14.3137 1.97873 14.719 2.05934 15.097 2.21595C15.4751 2.37256 15.8187 2.60211 16.1081 2.89149C16.3975 3.18088 16.627 3.52442 16.7836 3.90252C16.9402 4.28061 17.0208 4.68585 17.0208 5.0951C17.0208 5.50435 16.9402 5.90959 16.7836 6.28768C16.627 6.66578 16.3975 7.00932 16.1081 7.2987L13.2367 10.1701C12.9251 10.4818 12.5509 10.7238 12.1389 10.8802C11.7268 11.0366 11.2863 11.1038 10.8463 11.0774C10.4064 11.051 9.97706 10.9316 9.58668 10.727C9.19631 10.5224 8.85377 10.2373 8.58169 9.89062C8.48427 9.76674 8.34163 9.68664 8.18514 9.66793C8.02866 9.64922 7.87116 9.69345 7.74728 9.79087C7.6234 9.88829 7.5433 10.0309 7.52459 10.1874C7.50588 10.3439 7.5501 10.5014 7.64753 10.6253C8.02338 11.104 8.49649 11.4975 9.03563 11.7798C9.57476 12.0622 10.1677 12.227 10.7752 12.2634C11.3827 12.2997 11.991 12.2068 12.56 11.9908C13.1289 11.7747 13.6456 11.4405 14.0759 11.01L16.948 8.13787C17.3477 7.73824 17.6647 7.2638 17.8809 6.74165C18.0972 6.21951 18.2085 5.65987 18.2085 5.0947C18.2085 4.52953 18.0972 3.9699 17.8809 3.44775C17.6647 2.92561 17.3477 2.45117 16.948 2.05154C16.5484 1.6519 16.074 1.33489 15.5518 1.11861C15.0297 0.902334 14.47 0.791016 13.9049 0.791016C13.3397 0.791016 12.7801 0.902334 12.2579 1.11861C11.7358 1.33489 11.2613 1.6519 10.8617 2.05154L8.48669 4.42654C8.37848 4.53847 8.31857 4.68842 8.31984 4.8441C8.32112 4.99978 8.3835 5.14873 8.49353 5.25887C8.60357 5.36901 8.75246 5.43153 8.90814 5.43295C9.06382 5.43438 9.21383 5.3746 9.32586 5.26649L11.7009 2.89149Z" fill="#9E9E9E" stroke="#9E9E9E" stroke-width="0.5"/>
<path d="M5.76336 8.82949C6.07496 8.5178 6.44914 8.27576 6.86119 8.11936C7.27324 7.96295 7.71378 7.89574 8.15372 7.92215C8.59366 7.94856 9.02299 8.068 9.41337 8.27258C9.80374 8.47715 10.1463 8.76222 10.4184 9.10895C10.4666 9.17028 10.5264 9.22152 10.5945 9.25973C10.6625 9.29794 10.7374 9.32237 10.8149 9.33163C10.8924 9.3409 10.9709 9.33481 11.0461 9.31371C11.1212 9.29262 11.1914 9.25693 11.2528 9.2087C11.3141 9.16046 11.3654 9.10061 11.4036 9.03257C11.4418 8.96453 11.4662 8.88963 11.4755 8.81215C11.4847 8.73466 11.4786 8.65611 11.4575 8.58099C11.4364 8.50586 11.4008 8.43562 11.3525 8.37428C10.9767 7.89561 10.5036 7.5021 9.96443 7.21973C9.42529 6.93737 8.8324 6.77256 8.22489 6.7362C7.61737 6.69984 7.00906 6.79275 6.44009 7.00879C5.87113 7.22484 5.35446 7.55911 4.92419 7.98953L2.05202 10.8617C1.65239 11.2613 1.33538 11.7358 1.1191 12.2579C0.902822 12.7801 0.791504 13.3397 0.791504 13.9049C0.791504 14.47 0.902822 15.0297 1.1191 15.5518C1.33538 16.074 1.65239 16.5484 2.05202 16.948C2.45166 17.3477 2.92609 17.6647 3.44824 17.881C3.97039 18.0972 4.53002 18.2085 5.09519 18.2085C5.66036 18.2085 6.21999 18.0972 6.74214 17.881C7.26429 17.6647 7.73872 17.3477 8.13836 16.948L10.5134 14.573C10.5717 14.5187 10.6185 14.4531 10.6509 14.3803C10.6834 14.3075 10.7008 14.2288 10.7022 14.1491C10.7037 14.0694 10.689 13.9902 10.6591 13.9163C10.6293 13.8423 10.5848 13.7752 10.5284 13.7188C10.472 13.6624 10.4049 13.618 10.331 13.5881C10.257 13.5582 10.1778 13.5436 10.0981 13.545C10.0184 13.5464 9.93977 13.5638 9.86693 13.5963C9.7941 13.6287 9.72855 13.6755 9.67419 13.7339L7.29919 16.1089C7.00976 16.3982 6.66616 16.6278 6.28802 16.7844C5.90987 16.941 5.50459 17.0215 5.09531 17.0215C4.26872 17.0214 3.47602 16.693 2.89159 16.1085C2.60221 15.819 2.37267 15.4754 2.21607 15.0973C2.05948 14.7192 1.9789 14.3139 1.97894 13.9046C1.97901 13.078 2.30745 12.2853 2.89198 11.7009L5.76336 8.82949Z" fill="#9E9E9E" stroke="#9E9E9E" stroke-width="0.5"/>
</g>
<defs>
<clipPath id="clip0_4577_14656">
<rect width="19" height="19" fill="white"/>
</clipPath>
</defs>
</svg>
