<svg width="19" height="19" viewBox="0 0 19 19" fill="none" xmlns="http://www.w3.org/2000/svg">
<path d="M13.2644 1.58398H5.73563C4.81808 1.58398 4.35971 1.58398 3.98921 1.71303C3.63991 1.83689 3.32386 2.03959 3.0656 2.3054C2.80734 2.57121 2.61383 2.89297 2.50008 3.24569C2.375 3.62728 2.375 4.09911 2.375 5.04357L2.5 17.069C2.5 17.7482 3.15479 17.1703 3.648 16.7191C3.78637 16.5912 3.96785 16.5202 4.15625 16.5202C4.34465 16.5202 4.52613 16.5912 4.6645 16.7191L5.04688 17.069C5.28929 17.2932 5.60732 17.4177 5.9375 17.4177C6.26768 17.4177 6.58571 17.2932 6.82812 17.069C7.07054 16.8448 7.38857 16.7203 7.71875 16.7203C8.04893 16.7203 8.36696 16.8448 8.60938 17.069C8.85179 17.2932 9.16982 17.4177 9.5 17.4177C9.83018 17.4177 10.1482 17.2932 10.3906 17.069C10.633 16.8448 10.9511 16.7203 11.2812 16.7203C11.6114 16.7203 11.9295 16.8448 12.1719 17.069C12.4143 17.2932 12.7323 17.4177 13.0625 17.4177C13.3927 17.4177 13.7107 17.2932 13.9531 17.069L14.3355 16.7191C14.4739 16.5912 14.6554 16.5202 14.8438 16.5202C15.0321 16.5202 15.2136 16.5912 15.352 16.7191C15.8452 17.1703 16.625 17.7482 16.625 17.069V5.04357C16.625 4.09911 16.625 3.62648 16.4999 3.24648C16.3863 2.89359 16.1929 2.57164 15.9346 2.30568C15.6763 2.03972 15.3602 1.83691 15.0108 1.71303C14.6403 1.58398 14.1819 1.58398 13.2644 1.58398Z" stroke="#9E9E9E" stroke-width="1.5"/>
<path d="M7.52081 8.23398L8.6521 9.50065L11.4791 6.33398" stroke="#9E9E9E" stroke-width="1.5" stroke-linecap="round" stroke-linejoin="round"/>
<path d="M5.9375 12.2715H13.0625" stroke="#9E9E9E" stroke-width="1.5" stroke-linecap="round"/>
</svg>
