<svg width="22" height="22" viewBox="0 0 22 22" fill="none" xmlns="http://www.w3.org/2000/svg">
<path d="M11.0003 17.1875C5.65616 17.1875 3.14449 11.5133 3.03449 11.275C2.99818 11.1879 2.97949 11.0944 2.97949 11C2.97949 10.9056 2.99818 10.8121 3.03449 10.725C3.14449 10.4867 5.65616 4.8125 11.0003 4.8125C16.3445 4.8125 18.8562 10.4867 18.9662 10.725C19.0025 10.8121 19.0212 10.9056 19.0212 11C19.0212 11.0944 19.0025 11.1879 18.9662 11.275C18.8562 11.5133 16.3445 17.1875 11.0003 17.1875ZM4.42783 11C4.96866 12.0542 7.17783 15.8125 11.0003 15.8125C14.8228 15.8125 17.032 12.0542 17.5728 11C17.032 9.94583 14.8228 6.1875 11.0003 6.1875C7.17783 6.1875 4.96866 9.94583 4.42783 11Z" fill="#2A2A2A"/>
<path d="M10.9997 13.9793C10.4105 13.9793 9.83446 13.8046 9.34454 13.4773C8.85462 13.1499 8.47277 12.6846 8.24729 12.1402C8.0218 11.5959 7.9628 10.9969 8.07775 10.419C8.1927 9.84106 8.47644 9.31022 8.89309 8.89358C9.30973 8.47693 9.84057 8.19319 10.4185 8.07824C10.9964 7.96329 11.5954 8.02229 12.1398 8.24777C12.6841 8.47326 13.1494 8.85511 13.4768 9.34503C13.8041 9.83495 13.9788 10.4109 13.9788 11.0002C13.9764 11.7895 13.6618 12.5459 13.1036 13.1041C12.5454 13.6623 11.7891 13.9769 10.9997 13.9793ZM10.9997 9.396C10.6824 9.396 10.3723 9.49008 10.1084 9.66635C9.84464 9.84262 9.63904 10.0932 9.51762 10.3863C9.3962 10.6794 9.36444 11.0019 9.42633 11.3131C9.48823 11.6243 9.64101 11.9101 9.86536 12.1345C10.0897 12.3588 10.3755 12.5116 10.6867 12.5735C10.9979 12.6354 11.3204 12.6036 11.6136 12.4822C11.9067 12.3608 12.1572 12.1552 12.3335 11.8914C12.5098 11.6276 12.6038 11.3174 12.6038 11.0002C12.6014 10.5755 12.4317 10.1688 12.1313 9.86851C11.831 9.56819 11.4244 9.3984 10.9997 9.396Z" fill="#2A2A2A"/>
</svg>
