<svg width="19" height="19" viewBox="0 0 19 19" fill="none" xmlns="http://www.w3.org/2000/svg">
<path d="M9.5 11.875C10.1299 11.875 10.734 11.6248 11.1794 11.1794C11.6248 10.734 11.875 10.1299 11.875 9.5C11.875 8.87011 11.6248 8.26602 11.1794 7.82062C10.734 7.37522 10.1299 7.125 9.5 7.125C8.87011 7.125 8.26602 7.37522 7.82062 7.82062C7.37522 8.26602 7.125 8.87011 7.125 9.5C7.125 10.1299 7.37522 10.734 7.82062 11.1794C8.26602 11.6248 8.87011 11.875 9.5 11.875Z" fill="#9E9E9E"/>
<path d="M0 4.75C0 4.43506 0.125111 4.13301 0.347811 3.91031C0.57051 3.68761 0.872555 3.5625 1.1875 3.5625H17.8125C18.1274 3.5625 18.4295 3.68761 18.6522 3.91031C18.8749 4.13301 19 4.43506 19 4.75V14.25C19 14.5649 18.8749 14.867 18.6522 15.0897C18.4295 15.3124 18.1274 15.4375 17.8125 15.4375H1.1875C0.872555 15.4375 0.57051 15.3124 0.347811 15.0897C0.125111 14.867 0 14.5649 0 14.25V4.75ZM3.5625 4.75C3.5625 5.37989 3.31228 5.98398 2.86688 6.42938C2.42148 6.87478 1.81739 7.125 1.1875 7.125V11.875C1.81739 11.875 2.42148 12.1252 2.86688 12.5706C3.31228 13.016 3.5625 13.6201 3.5625 14.25H15.4375C15.4375 13.6201 15.6877 13.016 16.1331 12.5706C16.5785 12.1252 17.1826 11.875 17.8125 11.875V7.125C17.1826 7.125 16.5785 6.87478 16.1331 6.42938C15.6877 5.98398 15.4375 5.37989 15.4375 4.75H3.5625Z" fill="#9E9E9E"/>
</svg>
