<svg width="50" height="50" viewBox="0 0 50 50" fill="none" xmlns="http://www.w3.org/2000/svg">
<path d="M32.6481 28.3261C33.2214 28.6765 37.8982 31.7885 38.3257 32.0891C39.0286 32.5819 39.3097 33.7965 38.5383 34.8997C38.5099 34.9399 35.569 39 33.8959 39H33.8566C29.0781 38.8475 23.484 34.2177 19.6307 30.3603C15.7773 26.5029 11.1521 20.9054 11.0005 16.1423C10.946 14.4467 15.0552 11.4653 15.0963 11.436C15.5215 11.1398 16.0118 11 16.4741 11C17.06 11 17.6001 11.2254 17.9009 11.6427C18.2205 12.0848 21.3177 16.785 21.6578 17.3224C22.0202 17.8925 21.9695 18.7379 21.5229 19.5846C21.2871 20.0338 20.5122 21.3982 20.1319 22.0654C20.5471 22.6565 21.6141 24.0493 23.7757 26.2115C25.9508 28.3904 27.3313 29.4485 27.919 29.8614C28.5861 29.48 29.9496 28.7036 30.3997 28.4664C30.8616 28.223 31.3349 28.0985 31.7623 28.0985C32.0937 28.0985 32.3984 28.1732 32.6481 28.3261Z" fill="#A8CF45"/>
<path d="M41.1812 33.6082C40.6622 33.2432 34.9831 29.4644 34.287 29.0389C33.9838 28.8532 33.6137 28.7625 33.2114 28.7625C32.6923 28.7625 32.1177 28.9137 31.5568 29.2092C31.0102 29.4972 29.3546 30.44 28.5445 30.9031C27.8309 30.4018 26.1546 29.1169 23.5133 26.4712C20.8886 23.8456 19.5929 22.1543 19.0887 21.4365C19.5505 20.6264 20.4915 18.9696 20.7778 18.4242C21.3201 17.3961 21.3817 16.3695 20.9416 15.6772C20.5287 15.0246 16.7677 9.31728 16.3797 8.7804C16.0144 8.27375 15.3586 8 14.6472 8C14.0857 8 13.4904 8.16977 12.974 8.52946C12.9242 8.565 7.93439 12.1853 8.00065 14.2442C8.18465 20.028 13.801 26.825 18.4801 31.509C23.1592 36.193 29.952 41.8148 35.7545 42H35.8022C37.8337 42 41.4049 37.0699 41.4393 37.0211C42.3761 35.6815 42.0347 34.2066 41.1812 33.6082ZM39.7163 35.785C38.3713 37.6493 36.4617 39.5963 35.7142 39.8749C31.737 39.6881 26.1562 36.1904 19.9794 30.0082C13.8031 23.8255 10.3084 18.2471 10.1239 14.2804C10.3922 13.5303 12.3378 11.6071 14.1838 10.2713C14.3205 10.1768 14.4891 10.1222 14.6466 10.1222C14.6815 10.1222 14.7107 10.1254 14.7335 10.1296C15.3299 10.997 18.5315 15.8471 19.1126 16.7537C19.1147 16.8492 19.0824 17.0916 18.9005 17.4375C18.707 17.8062 18.1042 18.8811 17.247 20.3845L16.58 21.5543L17.3535 22.6568C17.9303 23.4764 19.3024 25.2584 22.013 27.9715C24.7353 30.6968 26.5097 32.0656 27.3256 32.6396L28.4273 33.4136L29.5963 32.7452C30.7292 32.0974 32.098 31.3212 32.5434 31.0873C32.9007 30.8989 33.1451 30.8841 33.2114 30.8841C33.222 30.8841 33.231 30.8841 33.2384 30.8852C34.0501 31.395 39.0017 34.6847 39.8759 35.2848C39.8902 35.3696 39.8769 35.5542 39.7163 35.785ZM29.3683 20.5077C29.5051 20.6461 29.6976 20.7305 29.9112 20.7247L30.2993 20.7157C30.3067 20.7157 30.312 20.7125 30.3205 20.712L37.925 20.7454C38.3528 20.7353 38.7075 20.3809 38.7175 19.9517L38.7181 19.4074C38.6534 18.9023 38.2563 18.6063 37.8279 18.6159L32.8079 18.6026L41.4875 9.92858C41.9016 9.51424 41.9016 8.84204 41.4875 8.4277C41.0735 8.01389 40.4023 8.01389 39.9883 8.4277L31.2848 17.1256L31.314 11.9917C31.3235 11.5631 30.9837 11.1896 30.5553 11.1997L30.0114 11.2002C29.582 11.2108 29.2273 11.466 29.2183 11.8947L29.1965 19.5543C29.1965 19.5617 29.2257 19.567 29.2257 19.5744L29.1833 19.9628C29.179 20.1782 29.2294 20.3697 29.3683 20.5077Z" fill="#9E9E9E"/>
</svg>
