<svg width="20" height="20" viewBox="0 0 20 20" fill="none" xmlns="http://www.w3.org/2000/svg">
<path d="M10 4.99985C11.3261 4.99985 12.5979 5.52665 13.5356 6.46436C14.4734 7.40207 15.0002 8.67388 15.0002 10M9.00016 1.06001C9.3319 1.01955 9.66581 0.999516 10 1.00001C12.3869 1.00001 14.6761 1.94822 16.364 3.63605C18.0518 5.32388 19 7.61306 19 10C19 10.3344 18.98 10.6677 18.94 10.9998" stroke="#2A2A2A" stroke-width="1.5" stroke-linecap="round" stroke-linejoin="round"/>
<path d="M13 19C11.4498 18.6304 9.97938 17.9832 8.65984 17.0896L10.48 14.4803C10.7792 14.072 11.2222 13.7923 11.7195 13.6977C12.2169 13.6031 12.7316 13.7006 13.1598 13.9706C13.4901 14.1803 13.8299 14.3704 14.1602 14.5605C14.4086 14.682 14.6291 14.8536 14.8078 15.0646C14.9865 15.2756 15.1195 15.5213 15.1984 15.7863C15.2774 16.0513 15.3005 16.3298 15.2664 16.6042C15.2322 16.8786 15.1416 17.1429 15.0002 17.3805L14.38 18.3309C14.269 18.5898 14.0683 18.8 13.8149 18.923C13.5614 19.046 13.2721 19.073 13 19ZM1.67008 5.67041L2.66992 5.04977C2.90184 4.89926 3.16244 4.79847 3.43528 4.75375C3.70812 4.70903 3.98726 4.72137 4.25509 4.78997C4.52292 4.85858 4.77362 4.98196 4.99136 5.15234C5.2091 5.32271 5.38916 5.53638 5.52016 5.77985C5.71024 6.13985 5.89984 6.48017 6.11008 6.78017C6.37997 7.2085 6.4774 7.72324 6.38271 8.22058C6.28801 8.71791 6.00825 9.16083 5.59984 9.46001L2.94016 11.3099C2.0394 10.0017 1.38215 8.54168 0.999999 7.00001C0.940193 6.73507 0.97433 6.45758 1.09657 6.21503C1.2188 5.97248 1.42154 5.77996 1.67008 5.67041Z" stroke="#2A2A2A" stroke-width="1.5" stroke-linecap="round" stroke-linejoin="round"/>
<path d="M2.94016 11.3104C3.67533 12.4627 4.54106 13.5262 5.52016 14.4799C6.47399 15.459 7.53767 16.3247 8.69008 17.0599" stroke="#2A2A2A" stroke-width="1.5" stroke-linecap="round" stroke-linejoin="round"/>
</svg>
