<svg width="40" height="40" viewBox="0 0 40 40" fill="none" xmlns="http://www.w3.org/2000/svg">
<rect width="40" height="40" rx="20" fill="#B4C7FF"/>
<path d="M12.6626 27.486L12.6208 27.3419L12.6626 27.486C12.7428 27.4628 12.8174 27.4235 12.882 27.3707C12.9457 27.3186 12.9984 27.2543 13.0369 27.1816C14.5117 24.6355 17.1136 23.1184 20.0001 23.1184C22.8866 23.1184 25.4885 24.6355 26.9633 27.1816C27.0019 27.2543 27.0545 27.3186 27.1183 27.3707C27.1828 27.4235 27.2575 27.4628 27.3376 27.486C27.4177 27.5093 27.5018 27.5161 27.5846 27.506C27.6675 27.4959 27.7474 27.4692 27.8197 27.4275C27.8919 27.3857 27.955 27.3297 28.005 27.263C28.0551 27.1962 28.0911 27.12 28.111 27.039C28.1308 26.9579 28.1341 26.8737 28.1205 26.7913C28.1072 26.7101 28.0777 26.6323 28.034 26.5626C26.8428 24.5056 25.0062 23.0294 22.8626 22.333C23.8403 21.7541 24.6223 20.8907 25.1011 19.854C25.6305 18.7078 25.7584 17.4168 25.4642 16.189C25.1701 14.9612 24.471 13.8682 23.4797 13.0864C22.4884 12.3045 21.2627 11.8793 20.0001 11.8793C18.7376 11.8793 17.5118 12.3045 16.5205 13.0864C15.5292 13.8682 14.8301 14.9612 14.536 16.189C14.2418 17.4168 14.3698 18.7078 14.8992 19.854C15.3779 20.8906 16.1598 21.7541 17.1375 22.3329C14.994 23.0287 13.1575 24.5049 11.9663 26.5626C11.9225 26.6323 11.8931 26.7101 11.8797 26.7913C11.8661 26.8737 11.8694 26.9579 11.8893 27.039C11.9091 27.12 11.9451 27.1962 11.9952 27.263C12.0453 27.3297 12.1083 27.3857 12.1806 27.4275C12.2528 27.4692 12.3328 27.4959 12.4156 27.506C12.4985 27.5161 12.5825 27.5093 12.6626 27.486ZM15.6189 17.4997C15.6189 16.6331 15.8758 15.7861 16.3572 15.0656C16.8387 14.3451 17.5229 13.7835 18.3235 13.4519C19.1241 13.1203 20.005 13.0335 20.8549 13.2026C21.7047 13.3716 22.4854 13.7889 23.0981 14.4016C23.7109 15.0144 24.1281 15.795 24.2972 16.6449C24.4662 17.4948 24.3795 18.3757 24.0479 19.1763C23.7163 19.9769 23.1547 20.6611 22.4342 21.1425C21.7138 21.6239 20.8668 21.8809 20.0003 21.8809C18.8387 21.8795 17.7251 21.4174 16.9037 20.5961C16.0824 19.7747 15.6203 18.6612 15.6189 17.4997Z" fill="#2A2A2A" stroke="#2A2A2A" stroke-width="0.3"/>
</svg>
