<svg width="44" height="44" viewBox="0 0 44 44" fill="none" xmlns="http://www.w3.org/2000/svg">
<rect width="44" height="44" rx="22" fill="#C2A4EA"/>
<path d="M14.6625 29.486L14.6207 29.3419L14.6625 29.486C14.7427 29.4628 14.8173 29.4235 14.8819 29.3707C14.9456 29.3186 14.9982 29.2543 15.0368 29.1816C16.5116 26.6355 19.1135 25.1184 22 25.1184C24.8865 25.1184 27.4884 26.6355 28.9632 29.1816C29.0018 29.2543 29.0544 29.3186 29.1181 29.3707C29.1827 29.4235 29.2573 29.4628 29.3375 29.486C29.4176 29.5093 29.5016 29.5161 29.5845 29.506C29.6673 29.4959 29.7473 29.4692 29.8195 29.4275C29.8918 29.3857 29.9548 29.3297 30.0049 29.263C30.055 29.1962 30.091 29.12 30.1109 29.039C30.1307 28.9579 30.134 28.8737 30.1204 28.7913C30.1071 28.7101 30.0776 28.6323 30.0338 28.5626C28.8426 26.5056 27.0061 25.0294 24.8625 24.333C25.8402 23.7541 26.6222 22.8907 27.1009 21.854C27.6303 20.7078 27.7583 19.4168 27.4641 18.189C27.17 16.9612 26.4709 15.8682 25.4796 15.0864C24.4883 14.3045 23.2625 13.8793 22 13.8793C20.7375 13.8793 19.5117 14.3045 18.5204 15.0864C17.5291 15.8682 16.83 16.9612 16.5359 18.189C16.2417 19.4168 16.3697 20.7078 16.899 21.854C17.3778 22.8906 18.1597 23.7541 19.1374 24.3329C16.9938 25.0287 15.1573 26.5049 13.9662 28.5626C13.9224 28.6323 13.8929 28.7101 13.8796 28.7913C13.866 28.8737 13.8693 28.9579 13.8891 29.039C13.909 29.12 13.945 29.1962 13.9951 29.263C14.0452 29.3297 14.1082 29.3857 14.1805 29.4275C14.2527 29.4692 14.3327 29.4959 14.4155 29.506C14.4983 29.5161 14.5824 29.5093 14.6625 29.486ZM17.6187 19.4997C17.6187 18.6331 17.8757 17.7861 18.3571 17.0656C18.8385 16.3451 19.5228 15.7835 20.3234 15.4519C21.1239 15.1203 22.0049 15.0335 22.8547 15.2026C23.7046 15.3716 24.4853 15.7889 25.098 16.4016C25.7107 17.0144 26.128 17.795 26.2971 18.6449C26.4661 19.4948 26.3793 20.3757 26.0477 21.1763C25.7161 21.9769 25.1546 22.6611 24.4341 23.1425C23.7136 23.6239 22.8666 23.8809 22.0002 23.8809C20.8386 23.8795 19.725 23.4174 18.9036 22.5961C18.0823 21.7747 17.6202 20.6612 17.6187 19.4997Z" fill="#2A2A2A" stroke="#2A2A2A" stroke-width="0.3"/>
</svg>
