<svg width="50" height="50" viewBox="0 0 50 50" fill="none" xmlns="http://www.w3.org/2000/svg">
<path d="M11.279 34C10.3417 34 9.56056 33.7257 8.93569 33.1772C8.31082 32.6287 7.99893 31.9661 8 31.1893C8 30.9316 8.03663 30.6795 8.10989 30.4328C8.18315 30.1862 8.28712 29.9451 8.42179 29.7095L12.1646 23.5926C11.809 22.7965 11.7659 22.0069 12.0353 21.2237C12.3046 20.4405 12.8675 19.9008 13.724 19.6044L16.9561 18.5C17.4162 18.3325 17.887 18.2479 18.3686 18.246C18.8491 18.2442 19.2779 18.3661 19.6549 18.6119C19.7411 17.8912 20.0799 17.276 20.6714 16.7662C21.2618 16.2554 21.9831 16 22.8353 16H27.1502C27.9905 16 28.7118 16.242 29.314 16.7261C29.9163 17.2102 30.281 17.8038 30.4081 18.5069C30.7227 18.2483 31.1202 18.1448 31.6007 18.1963C32.0812 18.2479 32.5413 18.3491 32.9808 18.5L36.2129 19.6044C37.0835 19.9017 37.6717 20.4373 37.9777 21.2113C38.2836 21.9853 38.2357 22.756 37.8338 23.5236L41.5766 29.6391C41.6973 29.8397 41.798 30.0408 41.8788 30.2423C41.9596 30.4439 42 30.6537 42 30.8718C42 31.7305 41.6509 32.4663 40.9528 33.0792C40.2557 33.6931 39.4095 34 38.414 34C38.1705 34 37.9389 33.9751 37.7191 33.9254C37.4982 33.8776 37.2774 33.8049 37.0565 33.7073L34.4288 32.5657H15.4888L13.0405 33.6549C12.7733 33.78 12.491 33.8688 12.1936 33.9213C11.8963 33.9737 11.5914 34.0009 11.279 34Z" fill="#A8CF45"/>
<path d="M41.3958 36.2757C42.5458 36.8812 43.4938 36.7382 44.2396 35.8465C44.984 34.9548 45.0799 33.9729 44.5271 32.9007L40.5458 25.434L37.075 34.0236L41.3958 36.2757ZM30.3375 34.3757H34.6792L39.7604 21.8194C40.0785 21.0347 40.1326 20.4 39.9229 19.9152C39.7132 19.4305 39.3174 19.0694 38.7354 18.8319L34.5688 17.1652C33.934 16.9 33.3229 16.8673 32.7354 17.0673C32.1479 17.2673 31.8188 17.7111 31.7479 18.3986L30.3375 34.3757ZM15.3208 34.3757H19.6646L18.2542 18.2382C18.1847 17.6965 17.8688 17.3159 17.3063 17.0965C16.7438 16.877 16.1188 16.9 15.4313 17.1652L11.2646 18.8319C10.6396 19.0958 10.2736 19.5104 10.1667 20.0757C10.0597 20.6409 10.1375 21.2757 10.4 21.9798L15.3208 34.3757ZM8.60625 36.2757L12.925 34.0236L9.53542 25.434L5.47292 33.0611C4.86736 34.1583 4.97014 35.1069 5.78125 35.9069C6.59236 36.7069 7.53403 36.8298 8.60625 36.2757ZM21.7479 34.3757H28.2542L29.8958 15.8111C29.9653 15.1777 29.8069 14.6409 29.4208 14.2007C29.0347 13.7618 28.4986 13.5423 27.8125 13.5423H22.1875C21.6694 13.5423 21.1771 13.7423 20.7104 14.1423C20.2451 14.5409 20.0431 15.043 20.1042 15.6486L21.7479 34.3757ZM7.35209 38.6236C6.14375 38.6236 5.13681 38.2097 4.33125 37.3819C3.5257 36.5541 3.12361 35.5541 3.125 34.3819C3.125 33.993 3.17223 33.6125 3.26667 33.2402C3.36111 32.868 3.49514 32.5041 3.66875 32.1486L8.49375 22.9173C8.03542 21.7159 7.97986 20.5243 8.32709 19.3423C8.67431 18.1604 9.4 17.3458 10.5042 16.8986L14.6708 15.2319C15.2639 14.9791 15.8708 14.8513 16.4917 14.8486C17.1111 14.8458 17.6639 15.0298 18.15 15.4007C18.2611 14.3132 18.6979 13.3847 19.4604 12.6152C20.2215 11.8444 21.1514 11.459 22.25 11.459H27.8125C28.8958 11.459 29.8257 11.8243 30.6021 12.5548C31.3785 13.2854 31.8486 14.1812 32.0125 15.2423C32.4181 14.852 32.9306 14.6958 33.55 14.7736C34.1694 14.8513 34.7625 15.0041 35.3292 15.2319L39.4958 16.8986C40.6181 17.3472 41.3764 18.1555 41.7708 19.3236C42.1653 20.4916 42.1035 21.6548 41.5854 22.8132L46.4104 32.0423C46.566 32.3451 46.6958 32.6486 46.8 32.9527C46.9042 33.2569 46.9563 33.5736 46.9563 33.9027C46.9563 35.1986 46.5063 36.309 45.6063 37.234C44.7076 38.1604 43.6167 38.6236 42.3333 38.6236C42.0194 38.6236 41.7208 38.5861 41.4375 38.5111C41.1528 38.4388 40.8681 38.3291 40.5833 38.1819L37.1958 36.459H12.7792L9.62292 38.1027C9.27848 38.2916 8.91459 38.4257 8.53125 38.5048C8.14792 38.584 7.75486 38.625 7.35209 38.6236Z" fill="#9E9E9E"/>
</svg>
