<svg width="36" height="35" viewBox="0 0 36 35" fill="none" xmlns="http://www.w3.org/2000/svg">
<path d="M10.709 30.625C9.90691 30.625 9.22052 30.3397 8.64982 29.769C8.07913 29.1983 7.79329 28.5114 7.79232 27.7083V8.75C7.37913 8.75 7.03302 8.61 6.75399 8.33C6.47496 8.05 6.33496 7.70389 6.33399 7.29167C6.33302 6.87944 6.47302 6.53333 6.75399 6.25333C7.03496 5.97333 7.38107 5.83333 7.79232 5.83333H13.6257C13.6257 5.42014 13.7657 5.07403 14.0457 4.795C14.3257 4.51597 14.6718 4.37597 15.084 4.375H20.9173C21.3305 4.375 21.6771 4.515 21.9571 4.795C22.2371 5.075 22.3766 5.42111 22.3757 5.83333H28.209C28.6222 5.83333 28.9688 5.97333 29.2488 6.25333C29.5288 6.53333 29.6683 6.87944 29.6673 7.29167C29.6663 7.70389 29.5264 8.05049 29.2473 8.33146C28.9683 8.61243 28.6222 8.75194 28.209 8.75V27.7083C28.209 28.5104 27.9236 29.1973 27.3529 29.769C26.7823 30.3406 26.0954 30.626 25.2923 30.625H10.709ZM15.084 24.7917C15.4972 24.7917 15.8438 24.6517 16.1238 24.3717C16.4038 24.0917 16.5433 23.7456 16.5423 23.3333V13.125C16.5423 12.7118 16.4023 12.3657 16.1223 12.0867C15.8423 11.8076 15.4962 11.6676 15.084 11.6667C14.6718 11.6657 14.3257 11.8057 14.0457 12.0867C13.7657 12.3676 13.6257 12.7137 13.6257 13.125V23.3333C13.6257 23.7465 13.7657 24.0931 14.0457 24.3731C14.3257 24.6531 14.6718 24.7926 15.084 24.7917ZM20.9173 24.7917C21.3305 24.7917 21.6771 24.6517 21.9571 24.3717C22.2371 24.0917 22.3766 23.7456 22.3757 23.3333V13.125C22.3757 12.7118 22.2357 12.3657 21.9557 12.0867C21.6757 11.8076 21.3295 11.6676 20.9173 11.6667C20.5051 11.6657 20.159 11.8057 19.879 12.0867C19.599 12.3676 19.459 12.7137 19.459 13.125V23.3333C19.459 23.7465 19.599 24.0931 19.879 24.3731C20.159 24.6531 20.5051 24.7926 20.9173 24.7917Z" fill="#595959"/>
</svg>
