<svg width="50" height="50" viewBox="0 0 50 50" fill="none" xmlns="http://www.w3.org/2000/svg">
<path d="M35.4355 19H14.5645C13.9876 19 13.5304 19.4867 13.5664 20.0624L14.9414 42.0624C14.9743 42.5894 15.4114 43 15.9395 43H34.0605C34.5886 43 35.0257 42.5894 35.0586 42.0624L36.4336 20.0624C36.4696 19.4867 36.0124 19 35.4355 19Z" fill="#A8CF45"/>
<path d="M10.9375 10.9375L12.8906 42.1875C12.9834 43.9932 14.2969 45.3125 16.0156 45.3125H33.9844C35.71 45.3125 36.999 43.9932 37.1094 42.1875L39.0625 10.9375" stroke="#9E9E9E" stroke-width="2" stroke-linecap="round" stroke-linejoin="round"/>
<path d="M7.8125 10.9375H42.1875H7.8125Z" fill="#9E9E9E"/>
<path d="M7.8125 10.9375H42.1875" stroke="#9E9E9E" stroke-width="2" stroke-miterlimit="10" stroke-linecap="round"/>
<path d="M18.75 10.9375V7.03126C18.7491 6.72322 18.8091 6.41804 18.9266 6.13328C19.044 5.84851 19.2166 5.58978 19.4345 5.37197C19.6523 5.15415 19.911 4.98154 20.1958 4.86408C20.4805 4.74661 20.7857 4.68661 21.0938 4.68751H28.9062C29.2143 4.68661 29.5195 4.74661 29.8042 4.86408C30.089 4.98154 30.3477 5.15415 30.5655 5.37197C30.7834 5.58978 30.956 5.84851 31.0734 6.13328C31.1909 6.41804 31.2509 6.72322 31.25 7.03126V10.9375M25 17.1875V39.0625M17.9688 17.1875L18.75 39.0625M32.0312 17.1875L31.25 39.0625" stroke="#9E9E9E" stroke-width="2" stroke-linecap="round" stroke-linejoin="round"/>
</svg>
