<svg width="19" height="20" viewBox="0 0 19 20" fill="none" xmlns="http://www.w3.org/2000/svg">
<path d="M15.8008 15.1951L12.8537 12.2481C13.5633 11.3035 13.9463 10.1538 13.945 8.97248C13.945 5.95497 11.49 3.5 8.47248 3.5C5.45497 3.5 3 5.95497 3 8.97248C3 11.99 5.45497 14.445 8.47248 14.445C9.65383 14.4463 10.8035 14.0633 11.7481 13.3537L14.6951 16.3008C14.8443 16.4341 15.0389 16.5053 15.2389 16.4997C15.4389 16.4941 15.6292 16.4121 15.7707 16.2707C15.9121 16.1292 15.9941 15.9389 15.9997 15.7389C16.0053 15.5389 15.9341 15.3443 15.8008 15.1951ZM4.56357 8.97248C4.56357 8.19937 4.79282 7.44362 5.22234 6.8008C5.65185 6.15799 6.26234 5.65697 6.9766 5.36111C7.69086 5.06526 8.47682 4.98785 9.23507 5.13867C9.99333 5.2895 10.6898 5.66179 11.2365 6.20846C11.7832 6.75513 12.1555 7.45163 12.3063 8.20989C12.4571 8.96814 12.3797 9.7541 12.0838 10.4684C11.788 11.1826 11.287 11.7931 10.6442 12.2226C10.0013 12.6521 9.24559 12.8814 8.47248 12.8814C7.43615 12.8802 6.44263 12.4679 5.70983 11.7351C4.97704 11.0023 4.56481 10.0088 4.56357 8.97248Z" fill="#A6A6A8"/>
</svg>
