<svg width="18" height="18" viewBox="0 0 18 18" fill="none" xmlns="http://www.w3.org/2000/svg">
<g clip-path="url(#clip0_2362_16474)">
<path d="M0.383945 8.89222C0.383523 10.4046 0.781773 11.8813 1.53904 13.1828L0.311523 17.63L4.89815 16.4367C6.16675 17.1219 7.58812 17.481 9.03252 17.4811H9.03632C13.8046 17.4811 17.686 13.6311 17.6881 8.89899C17.689 6.60594 16.7898 4.44971 15.1562 2.82748C13.5228 1.20538 11.3505 0.311593 9.03597 0.310547C4.26716 0.310547 0.385984 4.16031 0.384016 8.89222" fill="#7E9F2C"/>
<path d="M6.79738 5.17328C6.62962 4.8033 6.45306 4.79584 6.29352 4.78935C6.16288 4.78377 6.01354 4.78419 5.86434 4.78419C5.71499 4.78419 5.47234 4.83993 5.26724 5.06214C5.06193 5.28456 4.4834 5.82205 4.4834 6.91523C4.4834 8.00849 5.28588 9.06498 5.39774 9.21337C5.50975 9.36149 6.94694 11.6767 9.22309 12.5673C11.1148 13.3075 11.4997 13.1603 11.9103 13.1231C12.3209 13.0862 13.2353 12.5858 13.4218 12.0669C13.6085 11.5481 13.6085 11.1034 13.5525 11.0105C13.4965 10.9179 13.3472 10.8623 13.1233 10.7513C12.8992 10.6401 11.7983 10.1026 11.593 10.0284C11.3877 9.9543 11.2385 9.91733 11.0891 10.1398C10.9398 10.362 10.5109 10.8623 10.3802 11.0105C10.2497 11.159 10.1189 11.1775 9.89507 11.0664C9.67098 10.9549 8.94979 10.7206 8.09416 9.96365C7.42844 9.37467 6.979 8.64735 6.84836 8.42486C6.71772 8.20272 6.83437 8.0823 6.94666 7.97158C7.04727 7.87202 7.17067 7.71212 7.28275 7.58242C7.39441 7.45265 7.43167 7.36007 7.50634 7.21188C7.58109 7.06356 7.54368 6.93379 7.48778 6.82265C7.43167 6.71151 6.99651 5.61261 6.79738 5.17328Z" fill="white"/>
</g>
<defs>
<clipPath id="clip0_2362_16474">
<rect width="18" height="18" fill="white"/>
</clipPath>
</defs>
</svg>
