<svg width="18" height="18" viewBox="0 0 18 18" fill="none" xmlns="http://www.w3.org/2000/svg">
<path d="M17.6025 4.7891C17.4992 4.42011 17.2978 4.0837 17.0183 3.81339C16.7388 3.54308 16.391 3.34829 16.0095 3.24843C14.6126 2.88 8.99087 2.88 8.99087 2.88C8.99087 2.88 3.36883 2.89116 1.972 3.25958C1.59045 3.35945 1.24261 3.55425 0.963115 3.82457C0.683623 4.0949 0.482232 4.43131 0.378998 4.80032C-0.0435099 7.20059 -0.207408 10.858 0.390599 13.1623C0.493844 13.5313 0.69524 13.8677 0.974731 14.138C1.25422 14.4083 1.60206 14.6031 1.9836 14.703C3.38043 15.0714 9.00233 15.0714 9.00233 15.0714C9.00233 15.0714 14.6242 15.0714 16.0209 14.703C16.4025 14.6031 16.7503 14.4083 17.0298 14.138C17.3093 13.8677 17.5107 13.5313 17.614 13.1623C18.0596 10.7586 18.197 7.10342 17.6025 4.7891Z" fill="#7E9F2C"/>
<path d="M7.20141 11.5881L11.8651 8.97571L7.20141 6.36328V11.5881Z" fill="white"/>
</svg>
