<svg width="16" height="15" viewBox="0 0 16 15" fill="none" xmlns="http://www.w3.org/2000/svg">
<path d="M12.0046 9.40926C11.9188 9.49728 11.8547 9.60592 11.8176 9.72583C11.7806 9.84573 11.7719 9.97331 11.7921 10.0976L12.4454 14.1038C12.4833 14.2383 12.4794 14.3821 12.4345 14.5142C12.3895 14.6462 12.3058 14.7599 12.1954 14.8386C12.0585 14.9431 11.8938 14.9995 11.7246 14.9999C11.5931 15.0005 11.4635 14.9671 11.3471 14.9026L7.85794 12.9218C7.75192 12.8632 7.63395 12.8326 7.51419 12.8326C7.39443 12.8326 7.27647 12.8632 7.17044 12.9218L3.82378 14.9026C3.69089 14.9762 3.54111 15.0091 3.39135 14.9978C3.24158 14.9865 3.09781 14.9314 2.97628 14.8386C2.84946 14.7702 2.74456 14.6641 2.67463 14.5334C2.60469 14.4028 2.57281 14.2534 2.58294 14.1038L3.38294 10.0143C3.4032 9.89001 3.39444 9.76244 3.35742 9.64253C3.3204 9.52262 3.25623 9.41398 3.17044 9.32596L0.253776 6.91469C0.14609 6.8045 0.0698875 6.66477 0.0338027 6.51135C-0.002282 6.35793 0.00319376 6.19694 0.0496096 6.04662C0.0960968 5.89636 0.181606 5.76278 0.296472 5.66098C0.411338 5.55918 0.550979 5.49321 0.69961 5.47055L4.48878 4.76908C4.60738 4.75099 4.72002 4.70283 4.81699 4.62874C4.91397 4.55466 4.99237 4.45688 5.04544 4.34382L6.78961 0.469994C6.85639 0.328174 6.95968 0.208932 7.0877 0.125843C7.21573 0.0427546 7.36336 -0.000843887 7.51378 1.2374e-05C7.66393 -8.78429e-05 7.81111 0.0440461 7.93865 0.127417C8.06619 0.210788 8.169 0.330066 8.23544 0.471746L9.91128 4.34558C9.96435 4.45863 10.0428 4.55641 10.1397 4.6305C10.2367 4.70458 10.3493 4.75275 10.4679 4.77084L14.3254 5.4723C14.474 5.49492 14.6135 5.56089 14.7283 5.66271C14.843 5.76453 14.9284 5.89813 14.9746 6.04838C15.0208 6.19872 15.0262 6.35965 14.9901 6.51303C14.9541 6.66641 14.878 6.80613 14.7704 6.91644L12.0046 9.40926Z" fill="#EFBC00"/>
</svg>
