<svg width="19" height="18" viewBox="0 0 19 18" fill="none" xmlns="http://www.w3.org/2000/svg">
<path d="M15.3727 11.2911C15.2698 11.3967 15.1928 11.5271 15.1483 11.671C15.1039 11.8149 15.0934 11.968 15.1177 12.1171L15.9017 16.9246C15.9471 17.086 15.9425 17.2585 15.8886 17.417C15.8346 17.5755 15.7342 17.7118 15.6017 17.8063C15.4374 17.9317 15.2397 17.9994 15.0367 17.9999C14.8789 18.0006 14.7234 17.9605 14.5837 17.8831L10.3967 15.5062C10.2695 15.4359 10.1279 15.3991 9.98422 15.3991C9.84051 15.3991 9.69895 15.4359 9.57172 15.5062L5.55572 17.8831C5.39626 17.9714 5.21652 18.011 5.0368 17.9974C4.85709 17.9838 4.68456 17.9176 4.53872 17.8063C4.38654 17.7242 4.26066 17.5969 4.17674 17.4401C4.09282 17.2833 4.05456 17.104 4.06672 16.9246L5.02672 12.0171C5.05102 11.868 5.04051 11.7149 4.99609 11.571C4.95167 11.4271 4.87467 11.2968 4.77172 11.1912L1.27172 8.29762C1.1425 8.1654 1.05105 7.99773 1.00775 7.81362C0.964449 7.62952 0.97102 7.43633 1.02672 7.25595C1.0825 7.07563 1.18512 6.91534 1.32295 6.79317C1.46079 6.67101 1.62836 6.59186 1.80672 6.56466L6.35372 5.7229C6.49604 5.70119 6.63121 5.64339 6.74758 5.55449C6.86395 5.46559 6.95803 5.34825 7.02172 5.21259L9.11472 0.563992C9.19486 0.393809 9.3188 0.250719 9.47243 0.151012C9.62606 0.0513055 9.80322 -0.00101266 9.98372 1.48488e-05C10.1639 -0.000105411 10.3405 0.0528553 10.4936 0.152901C10.6466 0.252946 10.77 0.39608 10.8497 0.566096L12.8607 5.21469C12.9244 5.35036 13.0185 5.4677 13.1349 5.5566C13.2512 5.6455 13.3864 5.70329 13.5287 5.72501L18.1577 6.56676C18.336 6.59391 18.5034 6.67306 18.6411 6.79525C18.7788 6.91743 18.8812 7.07776 18.9367 7.25805C18.9922 7.43846 18.9986 7.63158 18.9553 7.81564C18.9121 7.99969 18.8207 8.16736 18.6917 8.29973L15.3727 11.2911Z" fill="#D9D9D9"/>
</svg>
