<svg width="18" height="17" viewBox="0 0 18 17" fill="none" xmlns="http://www.w3.org/2000/svg">
<path d="M1.66251 16.4864L1.62072 16.3423L1.66251 16.4864C1.74266 16.4631 1.81727 16.4239 1.88187 16.3711C1.94557 16.319 1.99823 16.2547 2.03678 16.182C3.51161 13.6358 6.11352 12.1188 9 12.1188C11.8865 12.1188 14.4884 13.6358 15.9632 16.182C16.0018 16.2547 16.0544 16.319 16.1181 16.3711C16.1827 16.4239 16.2573 16.4631 16.3375 16.4864C16.4176 16.5096 16.5017 16.5164 16.5845 16.5064C16.6673 16.4963 16.7473 16.4696 16.8195 16.4278C16.8918 16.3861 16.9548 16.3301 17.0049 16.2633C17.055 16.1966 17.091 16.1204 17.1109 16.0393C17.1307 15.9583 17.134 15.874 17.1204 15.7917C17.1071 15.7105 17.0776 15.6327 17.0338 15.563C15.8426 13.506 14.0061 12.0298 11.8625 11.3333C12.8402 10.7545 13.6222 9.89103 14.101 8.8544C14.6303 7.70821 14.7583 6.41713 14.4641 5.18934C14.17 3.96155 13.4709 2.8686 12.4796 2.08674C11.4883 1.30488 10.2625 0.879663 9 0.879663C7.73746 0.879663 6.51172 1.30488 5.52042 2.08674C4.52911 2.8686 3.83002 3.96155 3.53587 5.18934C3.24172 6.41713 3.36966 7.70821 3.89905 8.8544C4.37782 9.89098 5.1597 10.7544 6.13736 11.3333C3.99384 12.0291 2.15733 13.5053 0.966158 15.563C0.922375 15.6327 0.892933 15.7105 0.87957 15.7917C0.866026 15.874 0.869279 15.9583 0.889132 16.0393C0.908986 16.1204 0.94503 16.1966 0.995097 16.2633C1.04516 16.3301 1.10822 16.3861 1.18047 16.4278C1.25272 16.4696 1.33266 16.4963 1.4155 16.5064C1.49835 16.5164 1.58237 16.5096 1.66251 16.4864ZM4.61875 6.50003C4.61875 5.6335 4.87571 4.78643 5.35712 4.06593C5.83854 3.34544 6.5228 2.78389 7.32337 2.45228C8.12394 2.12067 9.00486 2.03391 9.85474 2.20296C10.7046 2.37201 11.4853 2.78929 12.098 3.40202C12.7107 4.01474 13.128 4.79541 13.2971 5.64529C13.4661 6.49517 13.3794 7.37609 13.0477 8.17666C12.7161 8.97723 12.1546 9.66148 11.4341 10.1429C10.7136 10.6243 9.86665 10.8812 9.00018 10.8813C7.83858 10.8799 6.72496 10.4178 5.90359 9.59644C5.08225 8.77511 4.6202 7.66156 4.61875 6.50003Z" fill="#2A2A2A" stroke="#2A2A2A" stroke-width="0.3"/>
</svg>
