<svg width="21" height="20" viewBox="0 0 21 20" fill="none" xmlns="http://www.w3.org/2000/svg">
<path d="M10.4999 1.87891C11.7623 1.87891 12.9881 2.30425 13.9794 3.08594C14.9707 3.8678 15.6696 4.96166 15.9637 6.18945C16.2578 7.41713 16.1298 8.70842 15.6005 9.85449C15.1211 10.892 14.3373 11.7543 13.3583 12.333C15.5023 13.0286 17.3392 14.5031 18.5311 16.5596C18.5758 16.6299 18.6064 16.7088 18.62 16.791C18.6335 16.8734 18.6311 16.958 18.6112 17.0391C18.5914 17.1201 18.5548 17.196 18.5048 17.2627C18.4547 17.3295 18.3915 17.386 18.3192 17.4277C18.2472 17.4693 18.1674 17.4958 18.0848 17.5059C18.0021 17.5159 17.9178 17.5095 17.8378 17.4863C17.7577 17.4631 17.6826 17.4239 17.618 17.3711C17.555 17.3195 17.5032 17.2554 17.4647 17.1836V17.1846C15.9901 14.6369 13.3873 13.1182 10.4999 13.1182C7.61248 13.1182 5.00959 14.6369 3.53503 17.1846L3.53406 17.1836C3.49565 17.2552 3.44464 17.3196 3.38171 17.3711C3.31727 17.4237 3.24287 17.4631 3.16296 17.4863C3.08294 17.5095 2.99862 17.5159 2.91589 17.5059C2.83312 17.4958 2.75274 17.4694 2.68054 17.4277C2.60829 17.386 2.54506 17.3295 2.495 17.2627C2.44506 17.196 2.40937 17.12 2.38953 17.0391C2.36967 16.958 2.36622 16.8734 2.37976 16.791C2.39333 16.7088 2.42294 16.6299 2.46765 16.5596H2.46863C3.66054 14.5024 5.49755 13.028 7.64148 12.333C6.66252 11.7543 5.87859 10.892 5.39929 9.85449C4.86996 8.70844 4.74199 7.41712 5.03601 6.18945C5.33016 4.96166 6.02908 3.8678 7.02039 3.08594C8.01163 2.3042 9.23747 1.87893 10.4999 1.87891ZM11.3544 3.20215C10.5046 3.03321 9.62355 3.1206 8.82312 3.45215C8.02274 3.78374 7.33865 4.34511 6.8573 5.06543C6.37588 5.78592 6.11902 6.63347 6.11902 7.5C6.12056 8.66123 6.58218 9.77449 7.4032 10.5957C8.2245 11.417 9.33839 11.8794 10.4999 11.8809C11.3664 11.8809 12.214 11.624 12.9344 11.1426C13.6547 10.6612 14.2161 9.97707 14.5477 9.17676C14.8793 8.37619 14.9658 7.49441 14.7968 6.64453C14.6276 5.79482 14.2102 5.01399 13.5975 4.40137C12.9849 3.78884 12.2041 3.37117 11.3544 3.20215Z" fill="#5E5E5E" stroke="#5E5E5E" stroke-width="0.3"/>
</svg>
