<svg width="36" height="35" viewBox="0 0 36 35" fill="none" xmlns="http://www.w3.org/2000/svg">
<path d="M7.97331 6.5625C6.76464 6.5625 5.60547 7.04264 4.75082 7.8973C3.89616 8.75196 3.41602 9.91112 3.41602 11.1198V13.4896H32.5827V11.1198C32.5827 9.91112 32.1025 8.75196 31.2479 7.8973C30.3932 7.04264 29.2341 6.5625 28.0254 6.5625H7.97331ZM3.41602 23.8802V15.3125H32.5827V23.8802C32.5827 25.0889 32.1025 26.248 31.2479 27.1027C30.3932 27.9574 29.2341 28.4375 28.0254 28.4375H7.97331C6.76464 28.4375 5.60547 27.9574 4.75082 27.1027C3.89616 26.248 3.41602 25.0889 3.41602 23.8802ZM23.2858 21.5104C23.0441 21.5104 22.8122 21.6064 22.6413 21.7774C22.4704 21.9483 22.3743 22.1801 22.3743 22.4219C22.3743 22.6636 22.4704 22.8954 22.6413 23.0664C22.8122 23.2373 23.0441 23.3333 23.2858 23.3333H27.2962C27.538 23.3333 27.7698 23.2373 27.9407 23.0664C28.1117 22.8954 28.2077 22.6636 28.2077 22.4219C28.2077 22.1801 28.1117 21.9483 27.9407 21.7774C27.7698 21.6064 27.538 21.5104 27.2962 21.5104H23.2858Z" fill="#595959"/>
</svg>
