<svg width="15" height="15" viewBox="0 0 15 15" fill="none" xmlns="http://www.w3.org/2000/svg">
<g clip-path="url(#clip0_2882_31520)">
<path d="M13.8012 10.8018C13.4227 12.0375 12.664 13.1224 11.6332 13.902C10.7282 14.5831 9.65131 14.9986 8.52333 15.1016C7.39535 15.2047 6.26096 14.9914 5.2475 14.4855C4.23404 13.9797 3.38161 13.2015 2.78589 12.2381C2.19018 11.2747 1.87475 10.1644 1.87503 9.03169C1.871 7.70962 2.30079 6.42273 3.09847 5.36841C3.87808 4.33763 4.96293 3.57899 6.19866 3.20044C6.28011 3.17537 6.36684 3.17296 6.44955 3.1935C6.53226 3.21403 6.6078 3.25672 6.66806 3.31698C6.72832 3.37724 6.77101 3.45278 6.79154 3.53549C6.81208 3.6182 6.80968 3.70494 6.7846 3.78638C6.51439 4.68019 6.49173 5.63056 6.71905 6.53622C6.94636 7.44189 7.41512 8.26892 8.07539 8.92919C8.73565 9.58945 9.56268 10.0582 10.4683 10.2855C11.374 10.5128 12.3244 10.4902 13.2182 10.22C13.2996 10.1949 13.3864 10.1925 13.4691 10.213C13.5518 10.2336 13.6273 10.2763 13.6876 10.3365C13.7479 10.3968 13.7905 10.4723 13.8111 10.555C13.8316 10.6377 13.8292 10.7245 13.8041 10.8059L13.8012 10.8018Z" fill="#605D5C"/>
</g>
<defs>
<clipPath id="clip0_2882_31520">
<rect width="15" height="15" fill="white"/>
</clipPath>
</defs>
</svg>
