<svg width="17" height="16" viewBox="0 0 17 16" fill="none" xmlns="http://www.w3.org/2000/svg">
<path d="M15.9815 10.1488C15.502 11.7141 14.5411 13.0882 13.2354 14.0757C12.0891 14.9385 10.725 15.4647 9.29621 15.5953C7.86744 15.7258 6.43055 15.4556 5.14683 14.8149C3.86311 14.1742 2.78337 13.1884 2.0288 11.9681C1.27422 10.7478 0.874688 9.34141 0.875036 7.90668C0.869932 6.23206 1.41433 4.602 2.42472 3.26653C3.41223 1.96086 4.78638 0.999919 6.35164 0.520433C6.4548 0.488667 6.56467 0.485625 6.66943 0.511634C6.77419 0.537643 6.86988 0.591719 6.94621 0.668046C7.02254 0.744373 7.07661 0.840063 7.10262 0.944825C7.12863 1.04959 7.12559 1.15946 7.09382 1.26262C6.75156 2.39477 6.72286 3.59858 7.01079 4.74575C7.29872 5.89293 7.89249 6.9405 8.72883 7.77684C9.56516 8.61318 10.6127 9.20694 11.7599 9.49487C12.9071 9.7828 14.1109 9.75411 15.243 9.41184C15.3462 9.38007 15.4561 9.37703 15.5608 9.40304C15.6656 9.42905 15.7613 9.48312 15.8376 9.55945C15.9139 9.63578 15.968 9.73147 15.994 9.83623C16.02 9.94099 16.017 10.0509 15.9852 10.154L15.9815 10.1488Z" fill="#2A2A2A"/>
</svg>
